<?xml version="1.0" standalone="no"?>
<!DOCTYPE svg PUBLIC "-//W3C//DTD SVG 20010904//EN"
 "http://www.w3.org/TR/2001/REC-SVG-20010904/DTD/svg10.dtd">
<svg version="1.0" xmlns="http://www.w3.org/2000/svg"
 width="830.000000pt" height="830.000000pt" viewBox="0 0 830.000000 830.000000"
 preserveAspectRatio="xMidYMid meet">
<metadata>
Created by potrace 1.14, written by Peter Selinger 2001-2017
</metadata>
<g transform="translate(0.000000,830.000000) scale(0.100000,-0.100000)"
fill="#000000" stroke="none">
<path d="M0 7416 l0 -885 28 -3 c21 -2 28 -9 30 -31 3 -24 -2 -30 -27 -40
l-31 -11 0 -1528 0 -1527 68 6 c56 5 71 3 85 -12 31 -30 5 -45 -79 -45 l-74 0
0 -535 c0 -395 3 -535 11 -535 7 0 26 17 44 38 l33 37 88 0 c205 0 329 -9 370
-26 114 -47 165 -109 92 -109 -143 -2 -477 -11 -538 -15 -41 -2 -81 -5 -87 -5
-10 0 -13 -28 -13 -104 l0 -104 48 -12 c26 -6 72 -15 102 -20 133 -21 151 -34
260 -194 90 -132 145 -228 169 -291 12 -33 54 -123 94 -200 125 -247 148 -296
177 -384 39 -120 59 -212 65 -306 3 -44 10 -96 14 -115 5 -19 15 -61 21 -93
10 -51 14 -58 33 -55 l22 3 -3 270 c-2 149 -5 286 -7 305 -9 69 -24 257 -30
370 -5 119 -19 264 -37 385 -5 39 -12 88 -14 110 l-4 40 15 -30 c8 -16 14 -25
15 -20 0 10 -33 218 -45 285 -3 19 -10 67 -14 105 -11 96 -55 204 -84 205 -11
0 -73 55 -140 124 -63 66 -61 57 -47 212 12 126 26 193 50 249 10 22 21 47 24
55 3 8 30 54 60 103 60 96 54 111 -18 45 -53 -51 -151 -231 -191 -353 -33
-103 -57 -155 -70 -151 -17 5 -63 129 -64 172 -1 48 14 70 204 298 56 68 89
99 110 105 17 5 54 25 82 45 57 41 60 42 65 21 2 -9 28 19 66 70 71 97 248
310 290 350 35 32 147 84 183 85 35 0 53 -37 32 -65 -63 -85 -6 -44 143 103
50 49 96 91 103 93 9 3 8 29 -3 104 -9 55 -20 116 -26 135 -18 63 -26 58 305
185 77 29 172 67 211 83 39 16 96 33 125 37 30 3 69 10 88 15 19 5 55 5 85 0
28 -5 105 -14 171 -19 248 -21 350 -33 367 -42 10 -6 44 -12 74 -13 38 -2 65
-11 86 -26 l30 -22 15 22 c14 20 22 22 65 17 28 -4 56 -11 63 -17 8 -7 39 -8
86 -4 73 7 75 8 171 81 98 75 181 115 305 147 73 19 283 33 283 19 0 -18 -39
-46 -55 -39 -17 6 -180 -15 -260 -34 -27 -7 -69 -21 -92 -31 -24 -10 -45 -19
-49 -19 -3 0 -26 -14 -52 -32 -49 -33 -79 -67 -74 -82 2 -5 -4 -6 -13 -2 -21
8 -73 -38 -55 -49 23 -14 152 -21 200 -10 32 7 44 -10 13 -18 -12 -3 -9 -5 8
-6 14 0 40 10 59 24 35 26 58 29 122 19 25 -5 35 -11 31 -20 -3 -10 3 -14 20
-14 33 0 43 -16 25 -38 -56 -65 -28 -52 58 28 41 39 79 70 84 70 15 0 70 58
70 74 0 8 11 27 24 43 12 15 26 35 29 43 3 8 6 1 6 -16 1 -17 -10 -53 -24 -80
-28 -54 -47 -114 -37 -114 8 0 42 50 65 95 18 37 33 93 42 162 5 41 11 52 28
57 30 8 32 1 12 -44 -10 -22 -15 -43 -12 -46 3 -4 34 12 67 36 34 23 64 40 66
37 3 -2 -2 -10 -11 -17 -8 -7 -15 -16 -15 -21 0 -4 -10 -25 -23 -46 -64 -110
-109 -286 -132 -523 -8 -91 -15 -178 -15 -195 1 -26 2 -28 11 -12 6 10 8 24 5
32 -3 8 0 15 6 17 6 2 12 24 13 49 3 67 34 214 51 241 5 7 7 25 6 40 -1 15 1
28 6 28 4 0 8 8 9 18 0 9 6 44 12 77 7 33 16 87 22 119 6 36 22 77 40 103 16
24 29 48 29 52 0 11 50 61 61 61 18 0 8 -50 -13 -70 -12 -11 -25 -20 -28 -20
-9 0 -57 -124 -68 -176 -5 -22 -9 -195 -8 -384 1 -189 -1 -335 -3 -325 -2 15
-6 11 -17 -14 -8 -18 -12 -43 -9 -55 3 -11 9 -65 14 -120 6 -59 16 -105 24
-115 8 -9 22 -43 32 -76 9 -33 22 -67 28 -75 7 -8 21 -32 31 -52 19 -38 41
-54 51 -38 8 13 52 13 60 -1 10 -15 -1 -22 -34 -22 -27 0 -28 -2 -19 -23 9
-19 14 -21 35 -11 37 17 53 -6 25 -36 -32 -34 -27 -46 6 -15 35 33 63 41 86
25 15 -11 16 -19 6 -61 -13 -60 -8 -70 10 -16 7 22 17 40 21 40 15 0 2 29 -21
49 -33 26 -18 41 45 49 46 5 47 4 40 -18 -6 -19 -4 -22 9 -17 18 7 41 -27 30
-44 -3 -6 0 -9 8 -7 8 2 28 -12 43 -31 28 -33 29 -33 8 -50 -19 -15 -121 -126
-154 -167 -55 -70 0 -28 111 84 54 55 70 66 97 65 42 -1 105 -59 97 -90 -10
-38 13 -33 53 10 22 23 50 44 64 46 13 1 27 8 32 15 5 8 10 7 17 -4 8 -11 9
-7 4 15 -6 29 -6 29 9 10 14 -19 16 -19 34 -2 11 9 25 17 31 17 7 0 12 6 12
14 0 7 13 16 29 19 16 3 46 18 67 32 21 14 46 24 56 22 10 -3 21 0 26 6 7 12
47 37 57 37 3 0 5 -7 5 -15 0 -22 60 -29 110 -11 25 9 52 16 61 16 9 0 27 9
40 21 26 22 36 12 19 -20 -8 -17 -8 -21 4 -21 9 0 12 -7 9 -20 -4 -16 -2 -19
11 -14 11 4 15 13 11 28 -5 18 -4 18 5 4 7 -12 7 -24 -2 -43 -8 -18 -14 -22
-20 -13 -4 8 -8 -4 -8 -29 0 -24 -4 -43 -10 -43 -5 0 -10 -10 -10 -22 0 -13
-21 -63 -45 -112 -25 -49 -43 -92 -40 -94 2 -2 19 20 37 49 67 109 82 138 111
214 9 22 28 72 43 110 68 176 70 202 46 440 -5 50 -8 92 -6 94 2 2 35 -26 75
-63 39 -36 75 -66 80 -66 12 0 29 -35 45 -96 26 -103 13 -184 -38 -230 -24
-23 -104 -124 -107 -136 -1 -4 -19 -36 -41 -69 -22 -34 -40 -71 -40 -82 0 -20
0 -20 20 1 12 12 20 29 18 36 -2 8 1 15 6 14 8 0 35 38 118 166 14 22 27 47
27 55 1 8 7 11 17 7 10 -4 13 -2 8 7 -5 8 -4 9 4 2 16 -15 19 -57 5 -62 -7 -3
-13 2 -13 11 0 9 -4 16 -10 16 -19 0 -10 -26 20 -60 30 -33 30 -34 30 -157 l0
-123 40 25 c22 14 44 25 50 25 14 0 12 -16 -4 -29 -8 -7 -21 -26 -29 -44 -9
-18 -30 -52 -49 -77 -18 -25 -50 -72 -72 -105 -21 -33 -53 -78 -70 -100 -17
-22 -22 -33 -12 -25 22 17 113 138 171 225 22 33 51 70 65 81 14 12 36 43 48
68 13 25 27 46 31 46 4 0 29 44 55 97 32 66 46 106 43 123 -34 171 -68 383
-62 388 10 10 33 -24 73 -108 32 -66 36 -84 36 -150 -1 -140 -6 -162 -75 -308
-22 -48 -61 -130 -86 -182 -24 -52 -49 -104 -56 -115 -29 -53 -77 -129 -99
-158 -14 -17 -28 -39 -33 -47 -8 -13 -6 -13 7 -2 19 15 148 188 194 259 29 46
155 293 182 360 21 52 40 50 101 -12 43 -43 61 -55 86 -55 40 0 135 -87 135
-124 0 -23 11 -34 123 -134 32 -28 35 -35 25 -52 -11 -17 -9 -22 12 -37 14 -9
50 -41 79 -71 51 -50 56 -52 68 -35 20 29 42 50 87 79 22 16 50 36 61 45 24
21 222 121 350 177 193 84 482 163 603 164 l32 1 0 543 c0 299 -2 544 -5 544
-2 0 -12 -8 -22 -18 -39 -41 -177 -142 -192 -142 -9 0 -75 -20 -146 -44 -192
-66 -294 -90 -322 -77 -33 15 -28 45 15 91 21 23 46 54 55 69 l17 28 -38 7
c-54 9 -70 21 -56 43 12 19 52 23 114 10 33 -7 39 -3 103 55 37 35 101 92 142
127 41 36 75 68 75 73 0 4 -31 8 -70 8 -38 0 -70 4 -70 10 0 24 154 42 162 18
4 -10 8 -9 20 2 8 8 61 59 117 113 55 54 101 104 101 113 0 10 -9 5 -26 -15
-14 -17 -30 -31 -35 -31 -6 0 -1 10 11 22 11 12 20 28 20 35 0 8 7 16 15 19
13 5 15 191 15 1593 l-1 1586 -42 27 c-29 19 -45 24 -54 16 -14 -11 -33 -3
-33 15 0 7 -17 22 -38 34 -95 55 -203 168 -252 263 -29 56 -80 199 -80 222 0
17 -185 18 -3900 18 l-3900 0 0 -884z m2367 735 c41 -65 93 -183 93 -210 0
-25 -19 -80 -35 -99 -1 -1 -27 22 -58 50 -60 57 -101 132 -111 206 -7 46 -2
51 25 26 20 -18 39 -11 39 15 0 35 28 42 47 12z m4849 -130 c-9 -14 -33 -14
-41 -1 -4 6 -1 18 6 26 11 13 14 13 27 0 8 -8 11 -19 8 -25z m-518 -181 c4
-35 -21 -111 -42 -133 -7 -6 -25 -34 -40 -60 -16 -26 -40 -54 -55 -61 -14 -8
-34 -23 -43 -33 -10 -11 -72 -45 -138 -78 -66 -32 -118 -60 -115 -63 3 -3 105
-8 228 -13 123 -4 241 -12 262 -17 22 -6 81 -18 130 -28 132 -25 239 -52 309
-78 138 -52 317 -163 355 -219 9 -13 33 -50 54 -81 20 -31 37 -63 37 -71 0
-28 -35 -15 -60 22 -36 53 -80 93 -167 153 -97 67 -210 125 -282 145 -31 9
-92 27 -136 40 -138 42 -418 83 -440 65 -7 -6 -31 -9 -54 -8 -57 2 -61 -8 -10
-29 63 -25 206 -100 259 -136 25 -17 72 -60 105 -96 90 -98 180 -187 280 -276
50 -44 126 -115 170 -157 44 -43 87 -78 96 -78 9 0 54 -17 100 -39 46 -21 108
-44 137 -51 51 -12 70 -24 55 -33 -11 -7 -163 9 -240 24 -35 7 -65 10 -69 7
-3 -3 9 -35 27 -69 39 -76 107 -291 119 -371 5 -38 18 -72 41 -105 18 -26 40
-60 50 -74 52 -78 149 -294 186 -414 22 -74 25 -228 4 -271 -40 -85 -55 -111
-74 -127 -33 -29 -37 -7 -16 78 25 105 18 175 -32 325 -43 126 -146 347 -172
369 -15 11 -18 10 -27 -14 -5 -14 -10 -30 -10 -34 0 -5 -25 -36 -55 -71 -42
-46 -53 -65 -45 -75 12 -14 3 -45 -12 -45 -6 0 -7 11 -4 25 4 14 2 25 -3 25
-12 0 -33 -35 -26 -42 3 -3 -1 -20 -9 -39 -8 -19 -26 -83 -41 -144 -15 -60
-31 -116 -37 -122 -17 -21 -28 -5 -28 40 0 39 -1 40 -16 22 -8 -11 -33 -53
-55 -92 -32 -60 -50 -80 -100 -113 -33 -22 -64 -40 -68 -40 -5 0 -14 -7 -21
-15 -11 -13 -8 -15 13 -15 14 0 29 4 32 10 3 6 15 10 26 10 14 0 27 -15 44
-52 13 -28 51 -80 85 -115 l62 -63 -4 -63 c-2 -34 -8 -70 -12 -79 -5 -11 -4
-18 2 -18 25 0 56 98 80 255 4 28 12 50 19 50 7 0 19 9 26 19 14 19 15 19 21
-2 4 -12 2 -47 -3 -79 -13 -68 -13 -65 -2 -59 14 9 34 168 28 222 -3 28 1 63
8 85 8 20 11 40 8 43 -3 3 -31 -17 -61 -44 -31 -28 -62 -50 -69 -50 -17 0 -27
44 -15 67 14 25 89 251 97 290 4 20 25 51 53 78 40 40 47 43 55 29 13 -23 -7
-209 -27 -249 -27 -56 -28 -73 -8 -79 22 -7 37 -38 90 -191 46 -131 59 -194
71 -340 12 -152 -7 -285 -39 -285 -6 0 -7 17 -3 43 7 44 8 56 5 100 -2 24 -6
27 -35 27 -38 0 -136 27 -154 42 -29 24 -4 108 32 108 6 0 40 -14 74 -30 35
-17 66 -29 69 -26 13 14 -61 206 -79 206 -4 0 -20 -27 -35 -60 -25 -55 -44
-76 -44 -49 0 5 -5 7 -10 4 -7 -4 -9 2 -4 19 3 15 2 26 -4 26 -5 0 -12 -28
-15 -61 -3 -34 -9 -65 -14 -68 -4 -3 -17 -24 -28 -45 -11 -22 -46 -67 -77
-100 -32 -33 -58 -63 -58 -67 0 -4 -9 -5 -20 -2 -27 7 -25 -9 5 -45 13 -16 34
-49 45 -73 23 -52 86 -167 100 -184 16 -19 9 -126 -13 -192 -11 -35 -24 -63
-28 -63 -14 0 -20 36 -13 90 4 38 3 52 -4 45 -6 -5 -12 -26 -14 -45 -5 -61
-29 -43 -48 38 -10 41 -22 83 -28 95 -6 12 -24 51 -40 87 -28 62 -47 87 -129
173 -40 40 -65 45 -138 26 -84 -22 -95 -29 -108 -76 -17 -65 -47 -88 -110 -86
-58 3 -123 -22 -130 -49 -6 -22 -30 -23 -47 -3 -11 13 -15 13 -41 -1 -16 -8
-29 -18 -29 -22 0 -4 26 -7 58 -7 42 0 63 5 76 18 22 22 29 22 23 0 -3 -10 -8
-30 -11 -44 -3 -16 -19 -33 -41 -45 -67 -36 -117 -124 -140 -248 -8 -40 -36
-69 -88 -91 -32 -13 -45 -14 -75 -4 -66 22 -137 58 -172 89 -71 61 -75 46 -66
-247 4 -148 2 -256 -5 -314 -11 -87 -12 -89 -38 -89 -15 0 -33 6 -40 13 -11
10 -13 7 -8 -18 l5 -30 -84 -3 c-84 -2 -84 -2 -84 23 0 27 -2 28 -49 19 -21
-5 -31 -12 -31 -25 0 -20 -15 -25 -25 -9 -3 5 0 10 7 10 8 1 5 7 -7 16 -11 8
-30 13 -42 11 -27 -5 -31 14 -8 37 8 8 15 19 15 25 0 6 5 11 10 11 6 0 10 7
10 15 0 8 14 30 31 49 31 36 89 140 89 161 0 6 11 22 24 34 28 27 89 148 118
233 23 72 28 189 8 213 -7 9 -11 18 -8 20 3 3 28 -20 57 -50 55 -58 61 -62 61
-44 0 12 -238 249 -249 249 -4 0 -20 14 -37 31 -16 17 -68 63 -116 101 -48 39
-91 83 -97 97 -5 14 -12 85 -14 156 -7 183 -24 223 -130 309 -19 16 -40 39
-45 50 -5 12 -37 51 -71 88 -33 36 -61 74 -61 83 0 9 -4 24 -9 33 -5 9 -12 40
-16 67 l-7 50 32 -45 c53 -73 82 -100 133 -122 51 -22 67 -47 81 -123 10 -52
70 -179 110 -230 39 -50 86 -96 131 -126 19 -13 40 -36 46 -51 13 -31 59 -96
59 -83 0 5 16 -6 35 -25 19 -18 37 -32 39 -29 5 5 -49 117 -79 162 -24 37 -13
44 32 23 20 -9 60 -19 90 -21 38 -3 65 -12 95 -33 53 -36 143 -82 160 -82 7 0
-5 18 -27 39 -66 64 -80 83 -124 162 -60 111 -53 124 24 44 36 -38 67 -66 70
-63 3 3 -11 32 -32 64 -56 87 -58 91 -108 190 -44 88 -71 194 -48 194 6 0 26
-26 46 -57 20 -32 48 -71 64 -87 15 -16 35 -40 44 -53 24 -35 101 -115 106
-109 5 4 -43 82 -65 105 -16 16 -32 56 -32 77 0 18 37 18 70 -1 14 -8 41 -15
60 -15 19 0 59 -13 88 -29 40 -22 52 -26 52 -14 0 11 6 10 26 -6 20 -16 30
-18 46 -10 25 13 34 37 19 52 -8 8 -11 5 -11 -13 0 -22 -1 -22 -18 -7 -10 10
-25 17 -33 17 -8 0 -34 8 -59 18 -34 13 -46 23 -48 41 -1 13 -13 34 -25 45
-54 50 -36 85 35 66 56 -15 129 -84 109 -103 -11 -9 -14 -9 -18 1 -5 14 -33
17 -33 3 0 -22 13 -41 28 -41 34 0 82 24 82 42 0 11 7 18 19 18 11 0 21 5 23
11 3 8 14 7 35 -5 36 -18 93 -22 93 -6 0 6 -7 13 -15 16 -29 11 -15 23 20 17
41 -7 44 2 10 29 -30 23 -32 38 -6 38 23 0 36 16 20 25 -6 4 -58 8 -115 9 -57
1 -105 7 -107 12 -1 5 43 12 98 15 92 6 101 5 116 -14 12 -14 23 -18 40 -14
37 10 149 87 149 103 0 8 3 14 8 14 16 -1 42 -28 42 -44 0 -9 6 -19 14 -22 32
-12 38 -136 9 -185 -18 -31 -146 -89 -212 -97 l-44 -5 22 -18 c13 -11 33 -19
45 -19 11 0 32 -3 44 -7 24 -6 24 -6 -9 -34 -31 -26 -49 -36 -104 -54 -18 -6
-18 -7 -4 -16 11 -6 31 -4 59 6 23 8 50 15 59 15 9 0 45 14 80 30 35 17 66 28
70 25 3 -4 -16 -27 -42 -51 -26 -25 -47 -47 -47 -49 0 -2 14 4 32 12 32 16
118 100 118 115 0 12 -14 10 -30 -5 -11 -9 -11 -8 0 8 8 11 22 25 30 32 25 21
-8 16 -38 -6 -42 -29 -113 -63 -120 -56 -3 3 4 12 15 20 20 14 188 205 180
205 -2 0 11 17 29 38 19 20 53 68 76 106 64 104 92 102 43 -3 -36 -76 -24 -75
19 2 47 83 91 185 84 193 -3 3 -21 -10 -39 -28 -44 -45 -138 -112 -146 -105
-4 5 70 102 97 127 44 40 140 195 140 225 0 8 9 24 20 35 11 11 20 25 20 32 0
6 11 43 24 82 13 39 27 91 30 116 5 41 4 40 -12 -15 -9 -34 -27 -77 -38 -96
-12 -20 -27 -53 -33 -75 -17 -57 -63 -154 -73 -154 -4 0 -8 -5 -8 -10 0 -33
-213 -291 -227 -276 -3 3 9 20 27 38 58 60 184 255 169 260 -7 2 -5 33 6 88
20 105 33 406 17 397 -5 -4 -13 -42 -16 -85 -15 -178 -37 -230 -104 -239 -46
-6 -146 23 -227 66 -72 38 -62 39 47 2 90 -30 188 -48 188 -34 -1 4 -7 19 -14
32 -14 26 -13 34 45 304 16 76 29 141 29 144 0 16 -33 -26 -56 -71 -41 -82
-185 -248 -201 -233 -4 4 3 20 15 35 123 153 115 140 143 227 40 125 37 302
-8 440 -27 82 -165 273 -192 264 -12 -4 58 -108 114 -169 13 -14 34 -47 47
-75 21 -46 23 -63 23 -205 l-1 -155 -38 -75 c-21 -41 -52 -96 -69 -122 -27
-43 -34 -48 -68 -48 -28 0 -49 9 -86 38 -68 54 -74 64 -100 155 l-23 82 7 -60
c8 -70 7 -244 -1 -253 -4 -3 -11 -1 -16 4 -11 11 -38 120 -46 187 -5 49 -25
62 -52 35 -9 -9 -16 -7 -32 7 -20 18 -21 18 -50 -16 -27 -31 -29 -32 -30 -11
0 28 -11 28 -28 1 -7 -12 -16 -19 -18 -16 -5 5 44 155 56 172 4 6 10 22 14 37
4 16 24 39 49 57 86 62 82 52 53 114 -14 29 -26 58 -26 64 0 10 -75 63 -89 63
-4 0 -13 11 -19 25 -15 31 -27 32 -47 1 -9 -14 -27 -32 -40 -40 l-24 -16 13
31 c7 17 20 39 29 50 16 18 15 19 -12 19 -16 0 -42 10 -58 23 -15 12 -50 38
-78 56 -27 19 -68 58 -90 87 -57 74 -143 129 -104 65 28 -43 -4 -32 -59 21
-87 84 -130 109 -117 66 7 -21 7 -21 -31 2 -22 13 -41 27 -44 31 -12 16 -56
27 -73 17 -10 -5 -26 -6 -37 -3 -17 6 -19 3 -14 -24 l6 -31 -63 29 c-56 25
-70 28 -116 21 -60 -10 -128 -42 -100 -48 23 -5 22 -7 -22 -47 -21 -19 -44
-49 -51 -65 -11 -27 -11 -32 6 -45 18 -14 18 -14 -3 -15 -12 0 -26 7 -31 16
-6 11 -17 15 -32 11 -20 -5 -22 -2 -18 23 l4 28 -29 -22 c-16 -11 -33 -31 -38
-44 -9 -24 -29 -22 -29 3 0 8 10 33 21 55 12 23 20 43 18 45 -2 2 -50 -12
-106 -30 -88 -29 -154 -63 -188 -99 -5 -6 -26 -23 -45 -38 -19 -15 -53 -43
-75 -63 -55 -48 -82 -46 -55 6 7 11 7 19 1 19 -15 0 -48 -61 -65 -121 -9 -31
-29 -76 -45 -100 -103 -162 -125 -192 -128 -182 -3 7 5 42 17 77 13 36 20 72
16 81 -3 9 1 18 9 21 8 4 15 16 15 27 0 28 62 156 119 244 51 79 92 108 246
172 78 33 165 96 344 250 102 88 141 111 261 152 l95 32 335 1 c281 1 347 4
408 19 178 42 313 124 381 232 22 35 43 75 47 90 9 35 28 26 32 -15z m-5898
-495 c0 -18 -5 -25 -19 -25 -11 0 -23 5 -26 10 -11 18 3 40 25 40 15 0 20 -7
20 -25z m4579 -287 c-27 -46 -49 -93 -49 -105 0 -13 -5 -23 -11 -23 -8 0 -10
25 -7 76 3 71 6 78 36 105 18 16 43 29 56 29 23 0 23 -2 -25 -82z m-4800 -153
c41 -56 55 -89 26 -65 -9 7 -33 10 -62 8 -53 -6 -160 15 -207 39 -27 14 -28
17 -13 28 10 7 40 15 67 19 27 4 52 11 55 16 3 6 26 10 49 10 41 0 46 -3 85
-55z m5136 8 c23 -62 130 -250 164 -288 15 -16 37 -46 50 -65 20 -31 17 -30
-21 11 -120 127 -226 293 -227 357 -1 46 13 40 34 -15z m473 -154 c-5 -16 -56
-44 -64 -36 -11 11 27 47 48 47 11 0 18 -5 16 -11z m-2618 -44 c0 -8 -4 -15
-10 -15 -5 0 -10 7 -10 15 0 8 5 15 10 15 6 0 10 -7 10 -15z m1340 -35 c23
-23 25 -51 9 -83 -25 -47 -68 -50 -98 -8 -27 37 -26 43 5 80 30 36 56 39 84
11z m-3585 -10 c11 -4 49 -19 85 -31 43 -16 58 -25 45 -27 -11 -3 -33 -14 -50
-25 -40 -29 -140 -36 -183 -13 -35 18 -37 23 -22 60 17 47 66 61 125 36z
m3702 -23 c10 -13 27 -28 38 -35 14 -8 16 -12 5 -12 -8 0 -25 -3 -37 -6 -31
-9 -67 29 -53 56 14 26 24 25 47 -3z m293 -37 c0 -12 -76 -49 -101 -50 -9 0
-20 8 -23 17 -8 19 8 40 18 24 10 -15 47 -13 70 4 23 18 36 19 36 5z m-3294
-26 c20 -9 50 -14 66 -12 36 6 35 -6 -1 -43 -21 -20 -39 -29 -62 -29 -39 0
-99 20 -99 33 0 5 7 7 15 3 20 -7 45 3 45 20 0 7 -12 20 -27 28 l-28 15 26 1
c15 0 44 -7 65 -16z m-1686 -2 c0 -5 15 -17 33 -27 27 -14 49 -17 110 -13 43
3 77 2 77 -1 -1 -3 -21 -21 -45 -38 -36 -27 -53 -33 -95 -33 -54 0 -107 17
-128 42 -10 13 -9 16 9 21 17 5 20 11 15 31 -5 19 -2 26 9 26 8 0 15 -4 15 -8z
m3746 -43 c18 -11 39 -30 48 -44 l16 -24 -48 4 c-26 3 -82 7 -125 11 -68 5
-77 8 -71 22 3 10 9 27 11 39 9 38 101 34 169 -8z m1884 -186 c0 -13 -65 -53
-85 -53 -11 0 -38 -21 -61 -46 -35 -38 -47 -45 -65 -39 -22 7 -22 7 -5 -11 18
-17 18 -18 -5 -37 -19 -16 -33 -18 -74 -13 -27 4 -74 9 -103 13 -29 3 -55 9
-57 13 -6 9 67 40 92 40 10 0 44 13 78 29 74 37 152 71 162 71 5 1 26 9 48 20
41 20 75 26 75 13z m-265 -283 c8 -12 -42 -12 -70 0 -16 7 -11 9 22 9 23 1 45
-3 48 -9z m311 -31 c104 -63 120 -68 189 -58 33 5 77 16 97 24 52 20 85 6 56
-23 -9 -9 -5 -12 18 -12 35 0 85 -36 67 -48 -6 -4 -21 -32 -32 -63 -28 -75
-50 -93 -114 -96 -64 -2 -94 15 -102 61 -7 36 -11 39 -110 71 -53 17 -92 41
-83 51 4 3 16 1 27 -6 24 -12 27 -8 9 12 -63 67 -98 109 -98 118 0 15 1 14 76
-31z m884 -116 c-15 -25 -16 -33 -6 -23 21 17 24 13 31 -38 6 -52 -10 -55 -57
-14 l-31 29 33 41 c41 52 59 55 30 5z m-718 -116 c14 -46 7 -54 -29 -31 -56
37 -66 75 -17 71 31 -2 36 -6 46 -40z m38 -58 c0 -5 -7 -9 -15 -9 -15 0 -20
12 -9 23 8 8 24 -1 24 -14z m-2400 -9 c0 -5 -4 -10 -10 -10 -5 0 -10 5 -10 10
0 6 5 10 10 10 6 0 10 -4 10 -10z m146 -112 c27 -23 86 -77 131 -121 58 -55
88 -77 100 -74 10 3 38 9 63 12 l45 7 -19 -21 c-33 -36 -83 -56 -111 -43 -16
7 -34 8 -52 2 -27 -8 -125 -28 -248 -49 -44 -8 -65 -18 -80 -36 -11 -13 -31
-26 -45 -27 -21 -3 -26 2 -28 25 -3 20 4 35 26 55 41 38 86 49 225 58 65 4
120 11 123 15 3 5 -21 27 -54 51 -60 43 -152 148 -152 174 0 25 26 15 76 -28z
m2517 -24 c58 -6 81 -13 79 -22 -1 -7 10 -17 24 -22 21 -9 25 -15 20 -35 -5
-18 -2 -25 9 -25 8 0 15 5 15 11 0 5 5 7 10 4 6 -3 10 -19 10 -35 0 -19 7 -33
20 -40 11 -6 20 -18 20 -27 0 -14 -26 -15 -252 -10 -139 3 -260 7 -268 9 -34
8 -80 31 -80 40 0 5 14 22 32 38 24 22 34 26 41 17 5 -7 6 -4 2 10 -5 19 0 23
32 32 21 6 46 11 56 11 24 0 131 49 124 57 -4 3 -1 15 6 27 12 21 12 21 15 -5
3 -25 7 -27 85 -35z m-2063 -114 c0 -5 -4 -10 -10 -10 -5 0 -10 5 -10 10 0 6
5 10 10 10 6 0 10 -4 10 -10z m1396 -119 c18 -62 71 -158 60 -109 -5 22 -1 30
16 39 13 7 25 15 28 18 3 4 21 18 40 31 19 13 47 34 61 48 l27 24 48 -22 c53
-24 52 -23 107 -35 20 -4 37 -11 37 -17 0 -5 4 -6 10 -3 14 9 173 -16 163 -25
-4 -4 -33 -14 -64 -21 -31 -8 -55 -18 -55 -24 2 -16 108 -11 147 7 38 18 63
11 54 -14 -5 -11 -27 -17 -87 -21 -47 -3 -84 -10 -88 -17 -5 -9 -22 -10 -54
-6 -30 5 -46 4 -46 -3 0 -6 17 -12 38 -13 l37 -1 -33 -4 c-19 -3 -43 2 -55 10
-20 13 -95 28 -139 28 -10 0 -18 4 -18 10 0 5 -7 9 -15 9 -8 0 -23 5 -34 11
-11 8 -24 9 -34 3 -15 -9 -13 -14 14 -43 28 -31 79 -127 79 -148 0 -5 20 -23
45 -41 43 -30 57 -52 34 -52 -12 0 -92 43 -133 73 -56 40 -148 132 -166 167
-19 38 -70 199 -70 221 1 27 29 -24 46 -80z m-656 -77 c0 -8 -5 -12 -10 -9 -6
4 -8 11 -5 16 9 14 15 11 15 -7z m79 -32 c1 -7 -3 -10 -9 -7 -5 3 -10 18 -9
33 0 24 1 25 9 7 5 -11 9 -26 9 -33z m-59 -7 c0 -26 45 -96 70 -108 13 -7 25
-18 28 -25 5 -16 -70 22 -90 46 -19 21 -40 81 -32 93 8 14 24 10 24 -6z m-868
-82 c15 -13 18 -32 18 -107 1 -50 5 -111 9 -135 9 -45 0 -66 -58 -140 -18 -23
-19 -24 -29 -4 -6 11 -14 87 -18 170 -7 145 -6 152 16 192 26 45 35 49 62 24z
m785 -105 c-3 -7 -5 -2 -5 12 0 14 2 19 5 13 2 -7 2 -19 0 -25z m-917 13 c0
-19 -37 -50 -95 -80 -65 -34 -95 -41 -76 -17 9 11 -7 14 -96 18 -79 4 -125 12
-172 29 -89 33 -88 51 1 21 64 -21 86 -23 178 -19 79 4 121 11 170 30 73 28
90 31 90 18z m897 -41 c29 0 32 -7 21 -46 -10 -39 -4 -73 7 -37 4 13 12 20 17
17 6 -4 7 2 3 17 -7 22 -7 23 11 9 10 -8 21 -16 23 -17 2 -2 -4 -13 -15 -25
l-19 -23 23 19 c12 11 20 26 18 33 -3 7 -1 13 4 13 16 0 23 -42 9 -52 -11 -8
-10 -9 3 -4 12 3 18 -2 21 -17 3 -15 4 -13 2 5 -2 30 11 27 26 -5 5 -12 14
-30 21 -39 17 -24 1 -36 -17 -12 -13 18 -14 18 -15 1 0 -14 -5 -17 -21 -12
-15 5 -19 4 -15 -4 4 -6 16 -11 26 -11 10 0 22 -4 25 -10 8 -13 45 -13 45 1 0
5 5 7 12 3 9 -6 9 -9 0 -12 -20 -6 -14 -20 11 -24 20 -3 23 -10 29 -88 4 -47
5 -131 2 -187 -6 -105 5 -187 32 -230 8 -12 14 -32 14 -43 0 -17 4 -19 28 -14
37 9 52 31 47 69 -5 42 8 63 28 44 7 -8 48 -45 90 -83 l77 -69 -41 -18 c-22
-10 -69 -46 -103 -79 -61 -58 -64 -60 -117 -60 -69 0 -154 -39 -227 -105 -29
-26 -56 -44 -60 -41 -3 4 -9 44 -13 89 -11 137 -80 260 -168 296 -25 11 -29
18 -34 69 -9 83 -39 165 -65 177 -12 5 -25 17 -27 26 -6 18 -74 84 -114 110
l-24 15 21 30 c14 19 24 51 28 92 4 34 10 62 13 62 16 0 104 -72 124 -101 25
-36 53 -57 63 -46 4 4 0 15 -9 25 -25 27 -21 35 13 29 39 -8 38 2 -5 40 -31
28 -35 37 -35 79 l0 49 25 -38 c14 -20 30 -37 35 -37 4 0 6 43 3 96 -7 116 7
124 40 24 18 -53 30 -71 67 -98 47 -36 63 -30 35 12 -18 27 -45 119 -45 151 1
19 1 19 14 3 7 -10 22 -18 33 -18z m77 -29 c-5 -6 -34 20 -34 30 0 5 8 1 18
-8 10 -10 17 -20 16 -22z m586 -271 c78 -117 75 -131 -11 -79 -90 54 -89 52
-87 142 2 70 3 78 15 61 8 -10 45 -66 83 -124z m1510 120 c0 -5 -2 -10 -4 -10
-3 0 -8 5 -11 10 -3 6 -1 10 4 10 6 0 11 -4 11 -10z m770 -68 c0 -4 -17 -24
-37 -44 -85 -81 -229 -148 -318 -148 -38 0 -45 3 -45 20 0 21 0 21 105 41 74
14 196 69 241 109 34 30 54 38 54 22z m-4840 -256 c14 -1 29 -7 33 -13 11 -18
25 -16 29 4 3 14 8 11 26 -15 18 -24 20 -32 9 -32 -8 0 -20 -7 -27 -15 -16
-20 -73 -19 -116 1 -43 21 -52 34 -26 41 14 3 18 10 14 26 -4 17 -2 19 14 12
10 -4 30 -8 44 -9z m4068 -8 c41 -51 142 -304 142 -359 0 -34 -17 -20 -34 29
-46 125 -107 284 -116 297 -23 34 -16 62 8 33z m-3933 -18 c3 -5 2 -10 -4 -10
-5 0 -13 5 -16 10 -3 6 -2 10 4 10 5 0 13 -4 16 -10z m3915 -82 c0 21 17 13
23 -10 3 -13 15 -49 26 -82 26 -70 25 -99 -2 -72 -11 11 -16 27 -12 40 2 11 2
15 -1 9 -8 -19 -24 -16 -24 5 0 10 -4 22 -9 28 -4 5 -14 30 -21 57 -7 26 -16
47 -19 47 -4 0 -7 10 -8 22 -2 17 4 12 22 -18 13 -21 25 -33 25 -26z m734 5
c60 -60 63 -80 8 -46 -41 25 -82 65 -82 80 0 25 29 12 74 -34z m99 32 c9 -21
-9 -28 -27 -9 -21 20 -20 24 3 24 10 0 21 -7 24 -15z m-5819 -4 c3 -5 0 -11
-8 -14 -15 -6 -26 1 -26 15 0 11 27 10 34 -1z m5962 -39 c-18 -16 -18 -16 -6
6 6 13 14 21 18 18 3 -4 -2 -14 -12 -24z m-46 -57 c0 -2 -10 -10 -22 -16 -21
-11 -22 -11 -9 4 13 16 31 23 31 12z m-722 -317 c3 -29 -13 -68 -28 -68 -6 0
-10 23 -10 51 0 43 3 50 18 47 10 -2 18 -14 20 -30z m-269 -240 c-17 -33 -73
-81 -78 -66 -3 9 74 88 87 88 1 0 -3 -10 -9 -22z m-1416 -65 c-7 -2 -13 -11
-13 -19 0 -8 -4 -14 -10 -14 -5 0 -10 -8 -10 -17 0 -10 -9 -29 -20 -43 -11
-14 -20 -31 -20 -37 0 -7 -4 -13 -10 -13 -5 0 -10 -4 -10 -10 0 -14 -48 -82
-70 -97 -10 -7 -25 -26 -32 -41 -28 -54 -43 -77 -61 -90 -9 -7 -14 -18 -11
-24 4 -6 -1 -8 -16 -3 -15 5 -20 4 -16 -4 4 -6 1 -11 -7 -11 -10 0 -14 -7 -10
-22 4 -19 3 -20 -6 -8 -9 12 -13 12 -19 2 -5 -7 -16 -10 -25 -6 -10 3 -17 1
-17 -5 0 -6 5 -11 12 -11 6 0 8 -3 5 -6 -4 -4 -14 -1 -24 7 -15 12 -16 12 -10
-3 4 -12 2 -15 -9 -11 -7 3 -14 -1 -14 -8 0 -7 -3 -9 -7 -5 -9 9 91 114 175
183 21 18 52 52 67 75 16 24 39 54 51 68 12 14 32 45 45 70 24 49 77 110 93
109 6 0 5 -3 -1 -6z m-5464 -505 l23 -38 -70 0 c-78 0 -90 8 -94 60 -2 26 1
35 15 38 10 2 17 -3 17 -12 0 -23 23 -20 39 5 13 21 13 21 30 3 10 -11 28 -36
40 -56z m5598 -30 c-3 -8 -6 -5 -6 6 -1 11 2 17 5 13 3 -3 4 -12 1 -19z m333
-34 c0 -8 5 -14 10 -14 6 0 10 -4 10 -10 0 -22 -19 -8 -29 20 -6 18 -6 28 -1
25 6 -4 10 -13 10 -21z m-953 -21 c1 -17 -2 -22 -7 -13 -7 11 -12 11 -26 -1
-16 -12 -15 -10 1 13 25 34 30 35 32 1z m1016 -78 c9 -20 17 -43 17 -52 0 -9
9 -27 21 -39 27 -28 16 -50 -12 -26 -11 9 -30 36 -41 60 -13 27 -24 39 -28 32
-6 -9 -9 -9 -16 1 -4 7 -3 14 4 17 7 2 12 10 12 18 0 9 -5 12 -12 8 -7 -4 -8
-3 -4 4 14 23 42 12 59 -23z m-1113 -9 c0 -3 -4 -8 -10 -11 -5 -3 -10 -1 -10
4 0 6 5 11 10 11 6 0 10 -2 10 -4z m507 -42 c-3 -3 -12 -4 -19 -1 -8 3 -5 6 6
6 11 1 17 -2 13 -5z m570 -41 c-3 -10 -5 -2 -5 17 0 19 2 27 5 18 2 -10 2 -26
0 -35z m-1142 7 c3 -5 1 -10 -4 -10 -6 0 -11 5 -11 10 0 6 2 10 4 10 3 0 8 -4
11 -10z m1175 -40 c0 -5 -7 -10 -15 -10 -8 0 -15 5 -15 10 0 6 7 10 15 10 8 0
15 -4 15 -10z m84 -32 c-3 -4 -11 -5 -20 -1 -11 4 -12 8 -3 20 10 11 14 11 20
1 4 -6 6 -15 3 -20z m-27 -45 c-3 -10 -5 -4 -5 12 0 17 2 24 5 18 2 -7 2 -21
0 -30z m-1102 8 c-3 -6 -11 -11 -17 -11 -6 0 -6 6 2 15 14 17 26 13 15 -4z
m1002 -13 c-3 -8 -6 -5 -6 6 -1 11 2 17 5 13 3 -3 4 -12 1 -19z"/>
<path d="M6410 6840 c0 -15 7 -20 25 -20 16 0 25 -6 25 -16 0 -21 44 -15 48 7
2 11 -6 19 -22 23 -15 4 -26 11 -26 16 0 6 -11 10 -25 10 -18 0 -25 -5 -25
-20z"/>
<path d="M6530 6710 c50 -45 49 -45 83 -27 39 20 12 46 -59 57 -33 6 -61 10
-64 10 -2 0 16 -18 40 -40z"/>
<path d="M6510 6523 c0 -15 41 -125 52 -137 4 -6 8 -1 8 10 0 12 -3 24 -7 28
-4 4 -17 30 -30 59 -12 29 -22 47 -23 40z"/>
<path d="M7302 6000 c0 -14 2 -19 5 -12 2 6 2 18 0 25 -3 6 -5 1 -5 -13z"/>
<path d="M7183 5760 c-4 -14 -22 -54 -40 -89 -34 -63 -40 -93 -10 -48 23 35
68 149 62 156 -3 3 -9 -6 -12 -19z"/>
<path d="M7390 5750 c0 -11 2 -20 4 -20 2 0 6 9 9 20 3 11 1 20 -4 20 -5 0 -9
-9 -9 -20z"/>
<path d="M7296 5575 c-9 -45 -1 -57 15 -22 7 16 8 31 1 42 -8 15 -10 11 -16
-20z"/>
<path d="M6923 5026 c-7 -8 -8 -18 -2 -27 5 -8 9 -28 9 -46 0 -17 5 -35 10
-38 6 -4 10 8 10 30 l0 36 49 -7 c29 -4 51 -2 55 4 3 6 -14 13 -40 17 -63 9
-76 15 -70 31 7 18 -5 17 -21 0z"/>
<path d="M7173 4629 c-12 -19 -36 -43 -54 -53 -20 -12 -28 -21 -20 -24 7 -2
23 5 35 17 12 12 27 21 32 21 14 0 37 45 32 61 -2 7 -13 -2 -25 -22z"/>
<path d="M5618 3263 c12 -2 32 -2 45 0 12 2 2 4 -23 4 -25 0 -35 -2 -22 -4z"/>
<path d="M5130 4920 c0 -5 5 -10 10 -10 6 0 10 5 10 10 0 6 -4 10 -10 10 -5 0
-10 -4 -10 -10z"/>
<path d="M5062 4485 c0 -16 2 -22 5 -12 2 9 2 23 0 30 -3 6 -5 -1 -5 -18z"/>
<path d="M5076 4320 c2 -74 6 -148 8 -165 3 -16 5 -39 6 -50 1 -19 2 -19 10 2
8 20 -1 158 -20 288 -7 45 -8 26 -4 -75z"/>
<path d="M5390 4206 c0 -8 5 -18 10 -21 6 -3 10 3 10 14 0 12 -4 21 -10 21 -5
0 -10 -6 -10 -14z"/>
<path d="M3186 4502 c-9 -15 34 -26 48 -12 8 8 6 9 -8 4 -11 -4 -21 -2 -26 6
-5 8 -10 9 -14 2z"/>
<path d="M7825 8278 c12 -42 74 -168 103 -211 16 -23 50 -62 76 -87 51 -50
172 -129 198 -129 9 -1 21 -9 26 -18 9 -15 13 -14 40 8 l31 24 0 218 1 217
-241 0 -240 0 6 -22z"/>
<path d="M3740 4068 c0 -4 4 -8 9 -8 6 0 12 4 15 8 3 5 -1 9 -9 9 -8 0 -15 -4
-15 -9z"/>
<path d="M1933 4050 c-5 -18 -53 -57 -62 -51 -2 2 -8 -4 -12 -12 -5 -8 -21
-18 -35 -21 -36 -9 -74 -36 -74 -51 0 -7 -7 -15 -15 -19 -8 -3 -15 -12 -15
-19 0 -8 -7 -21 -16 -28 -13 -11 -15 -26 -9 -89 12 -138 45 -383 70 -530 68
-395 108 -669 102 -699 -3 -13 1 -30 8 -38 18 -17 25 -17 25 2 0 10 11 16 33
16 30 2 30 2 5 6 -16 2 -28 10 -28 18 0 7 -7 26 -15 41 -8 16 -15 39 -15 50 0
12 -9 75 -19 140 -18 111 -29 179 -65 424 -8 52 -24 150 -35 218 l-21 123 24
48 c14 27 39 91 57 142 17 52 51 134 75 182 24 49 44 95 44 103 0 8 5 14 10
14 6 0 10 11 10 25 0 30 -20 34 -27 5z"/>
<path d="M3714 4036 c-10 -8 -16 -17 -13 -20 3 -3 14 3 24 14 21 23 17 26 -11
6z"/>
<path d="M2372 3736 c-17 -30 -32 -59 -32 -65 0 -6 -3 -11 -8 -11 -4 0 -13
-18 -19 -40 -7 -21 -27 -70 -44 -107 -29 -64 -77 -175 -141 -327 -15 -38 -37
-108 -48 -155 -12 -47 -25 -102 -30 -122 -6 -20 -10 -63 -10 -95 0 -33 -7 -99
-16 -149 -19 -107 -24 -354 -8 -440 l12 -60 1 85 c1 47 6 101 11 120 33 122
75 300 85 360 4 19 19 89 35 155 15 66 51 219 79 340 55 238 73 297 133 449
21 54 37 103 36 107 -2 5 -18 -15 -36 -45z"/>
<path d="M4408 3743 c-2 -5 -1 -26 3 -48 l6 -40 2 48 c1 44 -3 57 -11 40z"/>
<path d="M4292 3670 c0 -14 2 -19 5 -12 2 6 2 18 0 25 -3 6 -5 1 -5 -13z"/>
<path d="M4275 3630 c-5 -8 -10 -77 -11 -153 -1 -126 1 -137 15 -122 13 12 16
40 17 128 1 122 -6 171 -21 147z"/>
<path d="M1221 3569 c-6 -18 -11 -39 -10 -48 1 -9 7 4 15 28 16 51 12 68 -5
20z"/>
<path d="M1201 3464 c0 -11 3 -14 6 -6 3 7 2 16 -1 19 -3 4 -6 -2 -5 -13z"/>
<path d="M2798 3363 c12 -2 32 -2 45 0 12 2 2 4 -23 4 -25 0 -35 -2 -22 -4z"/>
<path d="M1350 3286 c0 -8 -5 -27 -11 -43 l-11 -28 -13 40 c-12 37 -12 33 -10
-62 2 -82 0 -101 -11 -96 -16 6 -11 -14 36 -145 43 -119 47 -132 86 -257 20
-60 51 -150 69 -200 19 -49 48 -130 64 -180 42 -128 107 -288 150 -371 35 -67
39 -82 55 -230 9 -88 21 -188 26 -224 5 -36 11 -103 13 -149 l4 -84 -29 -16
c-17 -9 -50 -30 -75 -48 -43 -29 -47 -30 -82 -19 l-36 13 -7 272 c-3 149 -9
279 -12 287 -3 9 -11 79 -16 156 -11 158 -29 254 -62 340 -25 63 -38 74 -38
31 0 -16 -3 -57 -6 -94 -5 -54 -4 -68 11 -83 21 -20 34 -106 16 -106 -6 0 -11
8 -12 18 0 12 -3 10 -10 -7 -7 -17 -6 -34 2 -52 6 -15 9 -51 6 -79 -6 -58 3
-67 49 -50 l29 10 -25 -20 c-14 -11 -33 -26 -42 -33 -12 -9 -21 -45 -33 -132
-25 -186 -48 -294 -65 -305 -12 -7 -42 -112 -60 -205 -5 -27 -20 -90 -33 -140
-21 -81 -22 -91 -7 -96 51 -21 76 -348 45 -600 -18 -152 -40 -221 -81 -260
-13 -12 -24 -26 -24 -31 0 -4 250 -8 555 -8 305 0 555 3 555 8 0 4 -11 63 -25
132 -24 122 -34 303 -17 325 11 16 47 12 47 -5 0 -8 -4 -64 -9 -123 -8 -107
-7 -119 30 -310 5 -26 7 -27 73 -27 l68 0 -13 68 c-21 110 -27 232 -15 314 14
100 25 118 73 118 41 0 43 -2 29 -28 -26 -49 -45 -176 -49 -319 l-4 -153 1535
0 1535 0 7 37 c7 41 28 77 38 66 4 -3 7 -28 7 -55 l0 -48 109 0 c123 0 112 -8
127 95 5 39 18 65 60 120 30 39 70 86 89 105 19 19 35 40 35 46 0 17 234 254
289 293 38 27 92 84 65 69 -5 -3 -71 -43 -147 -89 -76 -46 -154 -93 -173 -105
-18 -11 -45 -31 -59 -44 -14 -13 -25 -21 -25 -17 0 3 33 72 74 154 41 81 102
207 135 278 34 72 65 137 70 145 4 8 25 58 46 110 21 52 44 105 52 117 8 12
13 29 11 38 -2 11 -15 -3 -38 -39 -19 -31 -44 -71 -55 -89 -12 -17 -40 -68
-64 -112 -24 -44 -47 -82 -51 -85 -4 -3 -15 -21 -25 -40 -10 -19 -41 -71 -70
-115 -29 -44 -61 -94 -71 -112 -55 -91 -128 -192 -136 -187 -6 4 -5 11 1 17 6
6 11 25 11 41 0 21 3 27 9 17 7 -10 10 -10 16 -1 4 7 2 16 -5 20 -17 10 -3 31
15 23 8 -3 15 -1 15 5 0 6 -5 12 -11 14 -7 2 -5 14 5 33 15 30 62 133 85 189
19 47 24 136 12 236 -7 52 -14 96 -16 99 -16 16 -57 -55 -91 -160 -20 -61 -39
-79 -50 -47 l-8 23 -7 -25 c-8 -24 -8 -24 -7 5 0 48 -1 57 -12 50 -6 -4 -8
-11 -5 -16 4 -5 1 -9 -4 -9 -6 0 -11 9 -11 20 0 14 -5 18 -16 13 -17 -6 -17 5
1 65 12 37 -13 26 -34 -16 -21 -41 -60 -82 -49 -51 8 20 -11 51 -19 31 -5 -14
-53 47 -53 68 0 6 -4 9 -9 6 -4 -3 -6 7 -3 22 l5 27 13 -30 c7 -16 13 -35 14
-41 0 -19 32 -26 47 -11 7 7 18 28 23 46 l9 34 -23 -22 -24 -22 -16 22 c-9 13
-16 27 -16 32 0 5 -7 15 -15 23 -11 11 -15 37 -15 90 l0 74 -27 -6 c-33 -8
-53 -22 -53 -38 0 -6 -18 -35 -40 -64 -22 -29 -40 -55 -40 -58 0 -3 -14 -25
-31 -49 -29 -40 -70 -65 -105 -65 -16 0 -18 33 -5 58 4 9 11 29 15 44 6 27 5
28 -32 28 -32 0 -43 -6 -67 -36 -21 -26 -34 -34 -54 -32 -27 3 -30 14 -20 78
3 21 0 26 -22 28 -16 2 -30 12 -36 25 -10 21 -11 20 -31 -20 -12 -23 -32 -49
-44 -57 -35 -25 -90 -18 -69 8 11 15 23 106 13 106 -4 0 -14 -6 -21 -12 -12
-11 -13 -9 -7 7 6 20 -27 -14 -64 -64 -10 -13 -29 -21 -55 -23 l-40 -3 4 45
c2 24 7 55 12 67 8 21 6 23 -19 23 -16 0 -33 5 -39 11 -16 16 -29 4 -49 -46
-13 -35 -22 -45 -38 -44 -38 2 -71 16 -68 28 17 78 8 127 -17 84 -5 -10 -13
-18 -18 -18 -4 0 -7 -11 -5 -25 3 -20 1 -23 -9 -12 -7 6 -32 12 -56 12 -24 0
-43 5 -43 10 0 6 -9 10 -19 10 -21 0 -36 26 -21 35 6 4 10 19 10 36 0 27 -2
28 -20 17 -11 -7 -20 -19 -20 -27 0 -10 -8 -12 -27 -7 -29 7 -32 7 -83 4 -45
-2 -57 14 -41 58 17 46 5 57 -23 22 -20 -26 -24 -27 -56 -15 -19 6 -37 15 -40
18 -3 3 -23 9 -45 12 -22 4 -47 14 -55 24 -9 11 -29 18 -50 18 -33 0 -35 2
-40 38 l-5 37 -27 -25 -28 -26 -44 21 c-25 11 -48 20 -51 20 -4 0 -20 9 -36
21 -19 13 -28 28 -26 42 2 19 -3 22 -36 23 -24 1 -46 9 -61 24 -17 15 -31 20
-48 16 -12 -3 -17 -3 -10 0 16 8 -27 44 -45 37 -9 -4 -13 4 -13 23 0 25 -4 29
-30 30 -17 1 -41 11 -53 22 -13 12 -38 25 -56 28 -32 7 -32 8 -25 48 6 40 6
41 -13 23 -28 -24 -47 -21 -80 13 -15 17 -38 30 -50 30 -23 0 -28 12 -24 58 2
26 -6 28 -31 5 -16 -14 -21 -15 -27 -4 -5 8 -14 10 -20 7 -6 -4 -10 -3 -9 3 4
12 -60 81 -74 81 -7 0 -9 16 -5 44 5 35 3 47 -13 61 -18 16 -19 16 -25 -19 -8
-42 -31 -48 -58 -15 -17 19 -17 22 -3 38 9 10 16 23 16 29 0 19 -28 14 -43 -9
-13 -18 -18 -19 -36 -7 -12 7 -21 20 -21 29 0 27 -12 29 -39 8 -24 -19 -26
-19 -29 -4 -4 16 52 78 61 69 2 -3 10 2 17 11 7 8 17 15 22 15 15 0 47 43 48
63 0 22 -1 22 -53 -13 -56 -37 -89 -38 -116 -3 -24 29 -27 29 -36 -7 -4 -18 0
-33 14 -49 27 -31 28 -55 1 -48 -17 4 -20 0 -19 -31 1 -21 5 -48 10 -62 9 -25
9 -25 5 3 -4 36 8 34 63 -13 26 -21 133 -95 237 -164 104 -69 194 -130 200
-135 7 -5 45 -31 85 -57 41 -26 76 -50 79 -54 6 -8 137 -90 190 -119 39 -21
39 -21 76 -21 15 0 23 -4 19 -11 -10 -15 36 -51 119 -93 39 -20 87 -46 106
-56 19 -11 44 -20 56 -20 12 0 68 -22 126 -49 57 -27 116 -53 131 -56 15 -4
30 -11 33 -16 3 -5 12 -9 20 -9 8 0 44 -13 79 -30 35 -16 69 -30 74 -30 5 0
13 -4 16 -10 3 -5 0 -7 -8 -4 -8 3 -18 1 -22 -5 -3 -7 3 -11 17 -12 22 0 22
-1 3 -9 -27 -12 -37 -12 -30 -1 3 5 1 12 -5 16 -6 4 -8 10 -6 14 3 4 -30 7
-72 7 -42 0 -86 3 -97 8 -11 5 -30 8 -43 7 -12 -2 -38 6 -56 17 l-33 19 -12
-33 c-13 -36 -40 -50 -68 -35 -10 5 -26 12 -37 15 -16 5 -18 13 -12 49 l7 42
-23 -23 c-18 -18 -20 -24 -9 -31 9 -6 10 -11 2 -15 -6 -4 -11 -2 -11 3 0 6 -4
11 -10 11 -5 0 -10 -7 -10 -15 0 -22 -21 -18 -27 5 -3 11 -10 17 -16 13 -5 -3
-7 -1 -4 5 13 20 -4 38 -36 38 -59 0 -70 10 -64 55 4 33 3 38 -8 29 -15 -12
-10 -76 8 -98 5 -7 7 -16 3 -20 -4 -4 -16 4 -26 17 -17 23 -18 23 -23 5 -4
-16 -5 -16 -6 4 -1 29 -27 29 -35 0 l-7 -23 -11 25 c-6 16 -12 20 -15 12 -3
-9 -14 -1 -29 22 -18 26 -32 36 -51 36 l-26 0 31 -28 32 -27 -36 -95 c-20 -52
-45 -122 -56 -155 -41 -124 -49 -137 -77 -130 -51 12 -56 27 -37 97 10 35 35
104 55 153 21 50 44 106 51 125 7 19 18 41 23 48 7 9 3 12 -14 13 -44 2 -64
-2 -75 -17 -20 -25 -25 -15 -9 22 20 49 19 62 -4 39 -21 -21 -120 -213 -126
-244 -2 -10 -15 -44 -29 -75 -25 -54 -27 -55 -51 -44 -20 9 -25 18 -25 48 0
45 41 172 81 252 31 62 42 119 15 83 -13 -18 -13 -18 -24 1 -6 10 -12 15 -12
10 0 -5 7 -18 17 -28 9 -10 13 -21 9 -25 -3 -4 -13 3 -22 15 -17 25 -44 19
-45 -12 -1 -16 -2 -17 -6 -4 -2 10 7 37 21 61 14 24 26 55 26 68 0 23 -1 23
-16 -6 -64 -122 -96 -189 -128 -267 -8 -21 -21 -38 -29 -38 -19 0 -41 26 -33
39 3 5 2 11 -4 13 -5 1 -7 13 -4 25 4 13 10 21 14 18 4 -2 7 15 6 38 0 27 13
75 37 132 42 102 42 101 22 109 -8 3 -14 2 -14 -2 3 -21 -4 -32 -30 -45 -29
-15 -30 -14 -18 7 7 11 14 23 17 26 3 3 6 16 8 29 l2 25 -23 -22 c-13 -13 -41
-56 -62 -97 -21 -41 -41 -75 -44 -75 -4 0 -5 -15 -3 -32 2 -18 -3 -41 -10 -51
-13 -17 -14 -17 -36 1 -27 24 -32 63 -5 41 15 -12 16 -12 9 6 -10 24 -10 28 5
88 7 26 16 47 21 47 4 0 8 9 8 20 0 10 9 43 20 71 12 28 18 54 15 57 -3 3 -6
3 -8 1 -49 -65 -47 -63 -47 -39 0 16 -4 20 -15 16 -13 -5 -15 0 -9 29 3 19 2
35 -2 35 -9 0 -54 -64 -54 -76 0 -3 -10 -20 -22 -37 -13 -18 -22 -33 -20 -34
5 -6 1 -33 -5 -33 -5 0 -22 14 -40 30 l-32 30 28 43 c23 36 35 61 70 152 9 24
-38 -39 -49 -65 -7 -17 -15 -30 -19 -30 -3 0 -22 -29 -41 -64 -23 -43 -41 -66
-56 -69 -20 -3 -21 -1 -17 34 7 48 -11 92 -53 134 l-32 32 38 113 c22 62 44
135 50 162 7 27 21 55 32 62 11 8 18 20 16 27 -11 33 -91 -136 -134 -285 -22
-74 -23 -81 -8 -112 9 -19 20 -34 24 -34 4 0 12 -18 19 -39 14 -47 4 -79 -41
-130 -24 -27 -28 -37 -16 -39 16 -3 74 -119 64 -129 -10 -10 -35 29 -36 54 0
12 -4 25 -10 28 -5 3 -10 -2 -10 -11 0 -16 -1 -16 -14 1 -8 11 -12 24 -9 28 6
10 -23 39 -55 56 -27 14 -29 41 -3 41 10 0 24 7 31 15 7 8 17 12 23 8 7 -4 8
0 4 11 -4 10 -7 33 -7 52 0 23 -5 34 -15 34 -11 0 -13 -7 -9 -28 4 -21 -1 -36
-22 -60 -31 -35 -44 -40 -44 -17 0 18 -42 40 -92 49 -30 5 -38 12 -38 28 0 18
4 20 39 14 36 -5 40 -4 58 27 10 17 27 55 37 82 17 46 95 217 183 405 20 41
44 87 55 102 12 17 14 26 6 23 -19 -7 -91 -140 -154 -285 -31 -69 -62 -139
-70 -157 -8 -17 -14 -35 -14 -40 0 -5 -8 -18 -18 -29 -30 -33 -62 -91 -54 -99
4 -4 -14 -5 -40 -2 -47 6 -48 6 -48 -19 0 -20 -4 -25 -16 -20 -9 3 -18 6 -20
6 -12 0 -1 27 16 38 27 16 25 30 -7 64 -24 25 -25 29 -11 45 9 10 28 50 43 88
15 39 31 75 35 80 9 11 60 144 60 154 -1 3 -14 -21 -30 -55 -33 -69 -65 -106
-50 -57 4 15 15 51 24 78 8 28 24 97 35 155 11 58 31 150 45 205 13 55 33 138
44 185 12 47 37 141 57 210 38 135 57 270 36 270 -22 0 -57 -49 -86 -117 -15
-37 -40 -97 -56 -133 -15 -36 -41 -111 -59 -168 -17 -56 -36 -100 -41 -96 -5
3 -7 63 -4 145 6 143 -3 177 -24 93 -26 -103 -40 -218 -46 -389 -4 -99 -13
-220 -20 -270 -7 -49 -16 -117 -19 -150 -14 -139 -18 -170 -21 -173 -8 -8 -37
74 -42 116 -4 28 -9 39 -14 31 -21 -34 52 -209 97 -231 41 -20 52 -43 34 -75
-25 -44 -39 -47 -104 -22 -69 25 -82 38 -208 199 -63 81 -94 129 -113 181 -29
79 -15 89 30 23 56 -84 231 -250 196 -187 -5 10 -21 30 -35 44 -13 15 -36 49
-49 76 -14 27 -37 60 -52 74 -14 13 -38 47 -52 74 -14 28 -32 57 -39 66 -12
14 -12 19 6 42 25 32 25 41 1 28 -19 -11 -72 -107 -106 -196 l-20 -50 -7 105
c-14 224 -38 480 -48 505 -6 14 -10 44 -10 66 0 26 -5 42 -15 45 -10 4 -13 13
-9 26 3 10 0 26 -7 34 -6 8 -13 44 -14 79 -2 65 -15 106 -15 47 0 -18 -4 -32
-10 -32 -13 0 -13 46 0 71 9 16 7 19 -11 19 -12 0 -31 8 -42 18 -19 17 -19 15
-16 -133 5 -217 1 -337 -12 -333 -5 2 -27 48 -47 103 -33 90 -37 110 -37 200
0 55 4 137 8 183 5 45 6 82 3 82 -3 0 -6 -6 -6 -14z m161 -749 c-10 -9 -11 -8
-5 6 3 10 9 15 12 12 3 -3 0 -11 -7 -18z m112 -287 c3 -11 1 -20 -4 -20 -5 0
-9 9 -9 20 0 11 2 20 4 20 2 0 6 -9 9 -20z m1267 10 c0 -5 -2 -10 -4 -10 -3 0
-8 5 -11 10 -3 6 -1 10 4 10 6 0 11 -4 11 -10z m-1236 -116 c3 -8 2 -12 -4 -9
-6 3 -10 10 -10 16 0 14 7 11 14 -7z m86 -144 c0 -5 -2 -10 -4 -10 -3 0 -8 5
-11 10 -3 6 -1 10 4 10 6 0 11 -4 11 -10z m183 -140 c14 -11 28 -20 32 -20 4
0 23 -13 42 -30 18 -16 40 -30 48 -30 8 0 15 -3 15 -6 0 -6 -34 -67 -69 -124
-11 -19 -23 -42 -27 -50 -3 -8 -11 -28 -19 -45 -52 -113 -80 -176 -97 -214
-10 -24 -20 -42 -22 -40 -3 2 0 38 5 79 5 41 13 148 18 237 6 90 12 167 15
171 3 5 6 27 7 50 3 47 14 52 52 22z m260 -97 c20 -3 37 -9 37 -14 0 -5 6 -6
13 -3 18 7 67 -13 67 -27 0 -9 -3 -9 -14 0 -17 14 -43 5 -49 -18 -3 -11 -20
-23 -43 -29 -22 -5 -31 -10 -21 -11 39 -2 12 -33 -31 -35 -19 -1 -27 -8 -33
-29 -4 -16 -23 -43 -41 -61 -32 -31 -40 -72 -18 -86 5 -3 0 -24 -11 -47 -17
-38 -18 -52 -9 -174 6 -74 20 -183 31 -244 11 -60 31 -174 44 -253 14 -79 27
-147 30 -153 4 -5 1 -9 -4 -9 -6 0 -11 8 -11 17 0 15 -23 72 -54 133 -24 46
-93 260 -136 419 -6 24 -14 94 -17 155 l-5 111 59 120 c33 66 73 147 88 180
32 68 42 78 70 70 11 -3 37 -9 58 -12z m177 -43 c0 -5 -5 -10 -11 -10 -5 0 -7
5 -4 10 3 6 8 10 11 10 2 0 4 -4 4 -10z m240 -25 c0 -8 -4 -15 -9 -15 -13 0
-22 16 -14 24 11 11 23 6 23 -9z m-36 -21 c3 -8 2 -12 -4 -9 -6 3 -10 1 -10
-5 0 -6 -5 -8 -10 -5 -8 5 -7 11 1 21 14 18 16 17 23 -2z m36 -78 c0 -6 11
-28 25 -48 14 -20 25 -43 25 -50 0 -12 -21 18 -61 90 -23 40 -24 49 -4 32 8
-7 15 -18 15 -24z m-1136 -2 c15 -6 15 -7 0 -18 -15 -12 -15 -15 2 -47 28 -52
53 -109 49 -109 -2 0 -20 21 -40 46 -28 37 -35 56 -35 90 0 47 0 47 24 38z
m1751 -54 c4 -18 4 -21 -4 -11 -7 12 -13 8 -24 -20 -12 -27 -16 -30 -16 -12
-1 12 4 25 9 28 6 3 10 18 10 33 0 30 14 20 25 -18z m232 -42 c-3 -7 -5 -2 -5
12 0 14 2 19 5 13 2 -7 2 -19 0 -25z m-847 -19 c0 -6 -4 -7 -10 -4 -5 3 -10
11 -10 16 0 6 5 7 10 4 6 -3 10 -11 10 -16z m757 -1 c-3 -8 -6 -5 -6 6 -1 11
2 17 5 13 3 -3 4 -12 1 -19z m233 -37 c0 -5 3 -18 6 -28 5 -15 4 -16 -5 -3
-10 13 -12 13 -22 0 -9 -13 -10 -12 -5 3 3 10 6 23 6 28 0 5 5 9 10 9 6 0 10
-4 10 -9z m180 2 c0 -10 -20 -40 -20 -31 0 3 -3 13 -6 22 -4 11 -1 16 10 16 9
0 16 -3 16 -7z m-42 -43 c17 -11 32 -21 32 -23 0 -3 -14 -37 -30 -77 -45 -108
-100 -265 -100 -283 0 -24 -18 -30 -51 -17 -30 13 -36 32 -20 72 5 13 19 61
31 108 13 47 26 90 30 95 4 6 17 40 29 78 13 37 28 67 34 67 7 0 27 -9 45 -20z
m-98 -10 c0 -5 -5 -10 -11 -10 -5 0 -7 5 -4 10 3 6 8 10 11 10 2 0 4 -4 4 -10z
m599 -35 c16 -15 7 -71 -13 -78 -20 -8 -86 16 -86 31 0 7 7 26 15 43 13 25 20
28 43 23 15 -4 33 -12 41 -19z m-2739 6 c0 -5 3 -18 6 -28 4 -13 3 -14 -4 -5
-6 9 -18 11 -35 6 -29 -7 -35 4 -15 24 14 14 48 16 48 3z m2970 -5 c6 -8 19
-12 28 -10 16 5 16 5 0 -5 -19 -13 -44 -6 -52 15 -7 18 8 18 24 0z m280 -38
c0 -4 -9 -8 -20 -8 -21 0 -24 8 -13 36 6 16 7 16 20 -2 7 -10 13 -21 13 -26z
m811 -15 c-6 -21 -11 -50 -11 -65 0 -16 -4 -28 -10 -28 -5 0 -11 -8 -11 -17
-1 -17 -2 -17 -6 0 -2 9 -9 15 -14 12 -12 -8 -12 -4 6 39 8 20 22 52 30 73 19
46 30 37 16 -14z m-1591 -30 c0 -2 -15 -36 -34 -76 -18 -40 -41 -96 -50 -124
-17 -53 -29 -65 -40 -40 -3 6 -3 0 0 -14 3 -15 1 -30 -5 -33 -6 -4 -11 -16
-11 -27 0 -10 -2 -19 -4 -19 -2 0 -13 -3 -23 -6 -17 -6 -17 -6 -1 7 11 9 17
30 18 59 3 65 0 70 -15 25 l-13 -40 -1 37 c-1 21 13 74 29 120 17 45 30 89 30
97 0 9 9 30 19 48 l20 31 40 -20 c23 -11 41 -22 41 -25z m415 27 c3 -5 15 -10
26 -10 20 0 24 -17 13 -57 -8 -30 -38 -29 -69 1 -17 17 -23 31 -18 43 11 30
36 42 48 23z m228 -89 c7 -7 7 -19 -1 -36 -11 -23 -16 -26 -45 -20 -43 9 -51
19 -43 50 6 25 10 27 43 22 20 -4 41 -11 46 -16z m-1996 -96 c8 -25 6 -35 -15
-62 -28 -37 -31 -38 -57 -19 -16 12 -17 16 -6 30 18 22 -5 22 -29 1 -16 -14
-18 -14 -23 0 -4 8 -2 15 3 15 5 0 16 15 23 33 8 18 29 48 48 66 l34 34 7 -34
c3 -19 10 -47 15 -64z m1546 81 c22 -17 18 -29 -64 -201 -26 -54 -45 -83 -47
-72 -2 11 -13 17 -29 17 -20 0 -24 4 -18 18 3 9 25 70 48 135 38 109 43 117
66 117 14 0 34 -7 44 -14z m645 -23 c16 -14 18 -23 12 -40 -9 -23 -27 -28 -68
-17 -23 6 -39 44 -27 63 10 17 61 13 83 -6z m-428 -41 c0 -10 -4 -22 -8 -27
-5 -6 -23 -46 -40 -90 -31 -81 -70 -165 -76 -165 -1 0 -1 15 0 33 2 17 1 25
-2 16 -3 -9 -16 -19 -30 -22 -26 -5 -29 3 -15 31 14 28 28 62 62 155 l32 87
39 0 c30 0 38 -4 38 -18z m-3040 -2 c0 -5 -5 -10 -11 -10 -5 0 -7 5 -4 10 3 6
8 10 11 10 2 0 4 -4 4 -10z m3655 -7 c39 -19 40 -21 20 -46 -10 -15 -21 -17
-45 -12 -36 8 -46 25 -30 54 13 25 11 25 55 4z m-3490 -33 c-3 -6 -21 -17 -38
-26 -18 -9 -35 -22 -39 -28 -5 -7 -8 -7 -8 0 0 23 48 63 78 64 7 0 10 -5 7
-10z m3045 -35 c10 -12 9 -21 -3 -47 -9 -18 -23 -55 -32 -83 -21 -62 -43 -89
-61 -74 -9 8 -13 5 -16 -12 -3 -25 -28 -39 -28 -16 0 23 31 122 58 187 5 14
13 33 16 43 7 21 49 23 66 2z m649 6 c10 -7 10 -12 -5 -30 -21 -24 -44 -28
-44 -6 0 8 5 15 10 15 6 0 9 3 9 8 -4 23 6 28 30 13z m498 -4 c13 5 15 2 10
-11 -4 -10 -7 -22 -7 -27 0 -19 -28 -8 -33 13 -6 23 4 51 10 31 3 -7 12 -9 20
-6z m-946 -17 c21 -12 24 -31 10 -58 -5 -9 -21 -52 -36 -94 -28 -80 -44 -95
-38 -36 1 18 0 27 -3 21 -3 -7 -10 -13 -16 -13 -14 0 -3 80 19 143 17 48 29
55 64 37z m607 -52 c-5 -16 -48 -24 -48 -10 0 11 17 20 38 21 8 1 12 -5 10
-11z m-423 -41 c0 -9 -4 -17 -10 -16 -5 1 -9 5 -7 10 1 5 -2 9 -8 9 -5 0 -10
-11 -10 -24 0 -13 -7 -29 -15 -36 -18 -15 -19 -3 -4 37 16 43 54 57 54 20z
m-276 -127 c0 -9 -4 -8 -9 5 -5 11 -9 27 -9 35 0 9 4 8 9 -5 5 -11 9 -27 9
-35z m-462 8 c-3 -7 -5 -2 -5 12 0 14 2 19 5 13 2 -7 2 -19 0 -25z m-167 12
c0 -5 -5 -10 -11 -10 -5 0 -7 5 -4 10 3 6 8 10 11 10 2 0 4 -4 4 -10z m-2600
-15 c-14 -17 -30 -20 -30 -6 0 5 8 12 18 14 9 3 19 5 21 6 2 0 -2 -6 -9 -14z
m3207 -17 c-3 -8 -6 -5 -6 6 -1 11 2 17 5 13 3 -3 4 -12 1 -19z m-1314 -37
c-7 -48 -16 -55 -50 -44 -18 6 -32 20 -38 39 -5 16 -14 32 -19 35 -5 4 18 7
52 6 l60 0 -5 -36z m1147 35 c0 -3 -4 -8 -10 -11 -5 -3 -10 -1 -10 4 0 6 5 11
10 11 6 0 10 -2 10 -4z m218 -17 c-2 -6 -7 -10 -12 -9 -5 1 -12 -4 -17 -11
-10 -17 -21 -7 -14 12 6 17 48 24 43 8z m-71 -71 c-3 -7 -5 -2 -5 12 0 14 2
19 5 13 2 -7 2 -19 0 -25z m37 -4 c-9 -13 -21 -24 -26 -24 -5 0 -2 7 6 16 9 8
16 22 16 30 0 8 4 12 10 9 6 -4 4 -16 -6 -31z m553 -56 c-3 -8 -6 -5 -6 6 -1
11 2 17 5 13 3 -3 4 -12 1 -19z m-567 -568 c12 -8 9 -10 -12 -10 -14 0 -28 -5
-30 -11 -2 -7 -27 -12 -56 -13 -28 -1 -52 -4 -52 -8 0 -5 -11 -8 -25 -8 -28 0
-32 12 -12 29 31 25 158 40 187 21z"/>
<path d="M2030 1614 c0 -13 18 -39 24 -34 2 3 -2 14 -10 24 -8 11 -14 16 -14
10z"/>
<path d="M2600 3062 c0 -17 81 -108 108 -121 13 -6 42 -11 65 -11 24 0 47 -4
52 -9 6 -5 35 -5 68 -1 53 8 64 14 108 58 27 27 49 55 49 61 0 15 -65 -19
-105 -54 -27 -24 -36 -26 -80 -21 -27 3 -77 6 -109 6 -59 0 -60 1 -108 52 -26
29 -48 47 -48 40z"/>
<path d="M3101 3054 c0 -11 3 -14 6 -6 3 7 2 16 -1 19 -3 4 -6 -2 -5 -13z"/>
<path d="M4272 3045 c0 -16 2 -22 5 -12 2 9 2 23 0 30 -3 6 -5 -1 -5 -18z"/>
<path d="M4526 2951 c-10 -11 -16 -26 -14 -33 3 -8 12 0 22 20 19 37 17 40 -8
13z"/>
<path d="M3996 2942 c5 -5 47 -33 94 -63 47 -30 105 -68 129 -84 24 -17 72
-47 105 -68 34 -21 63 -42 66 -47 3 -4 33 -25 67 -46 56 -36 114 -74 458 -308
61 -41 115 -79 121 -84 14 -12 54 -34 54 -29 0 2 -19 17 -42 33 -24 16 -50 34
-58 41 -8 7 -44 32 -80 55 -36 23 -69 47 -75 54 -5 6 -70 51 -142 100 -181
122 -172 115 -365 241 -95 62 -184 120 -198 130 -62 45 -167 103 -134 75z"/>
<path d="M1624 2909 c-3 -6 -1 -16 5 -22 8 -8 11 -5 11 11 0 24 -5 28 -16 11z"/>
<path d="M5770 2913 c0 -5 5 -15 10 -23 8 -12 10 -11 10 8 0 12 -4 22 -10 22
-5 0 -10 -3 -10 -7z"/>
<path d="M2735 2880 c-16 -7 -17 -9 -3 -9 9 -1 20 4 23 9 7 11 7 11 -20 0z"/>
<path d="M2800 2876 c0 -2 7 -7 16 -10 8 -3 12 -2 9 4 -6 10 -25 14 -25 6z"/>
<path d="M3036 2864 c-3 -9 -6 -19 -6 -24 0 -8 117 -85 230 -150 132 -76 173
-101 188 -116 7 -8 28 -22 45 -31 18 -9 51 -29 74 -44 27 -19 44 -25 49 -18 7
12 11 9 -81 76 -176 129 -262 194 -280 211 -29 28 -176 112 -196 112 -9 0 -20
-7 -23 -16z"/>
<path d="M2670 2854 c-33 -13 -33 -14 -5 -8 17 3 34 10 40 15 11 11 8 11 -35
-7z"/>
<path d="M1630 2850 c0 -5 5 -10 11 -10 5 0 7 5 4 10 -3 6 -8 10 -11 10 -2 0
-4 -4 -4 -10z"/>
<path d="M2861 2824 c0 -11 3 -14 6 -6 3 7 2 16 -1 19 -3 4 -6 -2 -5 -13z"/>
<path d="M1651 2810 c0 -8 6 -26 14 -40 13 -23 14 -23 15 -4 0 11 -7 29 -15
40 -11 14 -14 15 -14 4z"/>
<path d="M5917 2801 c-2 -10 -1 -25 4 -32 6 -10 9 -4 9 19 0 36 -5 42 -13 13z"/>
<path d="M2790 2785 c-7 -9 -10 -18 -7 -21 10 -11 37 5 37 21 0 19 -14 19 -30
0z"/>
<path d="M4100 2769 c19 -17 51 -39 71 -49 21 -11 44 -27 53 -36 10 -9 19 -14
22 -11 3 3 -37 32 -88 66 -51 34 -77 47 -58 30z"/>
<path d="M5080 2750 c-67 -73 -118 -139 -124 -158 -5 -15 8 -6 43 30 68 72
111 122 111 130 0 15 -16 14 -30 -2z"/>
<path d="M2709 2703 c-13 -16 -12 -17 4 -4 9 7 17 15 17 17 0 8 -8 3 -21 -13z"/>
<path d="M7995 2690 c-144 -29 -292 -91 -328 -136 -10 -14 -31 -31 -45 -39
-26 -14 -119 -100 -194 -181 -23 -24 -38 -50 -38 -65 0 -14 -6 -31 -12 -38
-11 -10 -8 -16 13 -32 15 -10 63 -54 107 -97 105 -102 132 -165 156 -362 19
-153 50 -357 67 -443 10 -52 9 -60 -7 -78 -9 -10 -38 -25 -63 -33 -45 -14 -97
-34 -156 -61 -16 -7 -52 -22 -80 -33 -27 -11 -77 -33 -110 -50 -97 -49 -193
-92 -205 -92 -5 0 -10 -4 -10 -8 0 -5 -29 -24 -65 -42 -36 -19 -74 -42 -85
-52 -10 -10 -24 -18 -30 -18 -5 0 -10 -4 -10 -8 0 -5 -17 -18 -38 -30 -21 -11
-47 -31 -58 -43 -10 -11 17 3 61 32 44 29 82 56 85 59 14 17 172 100 285 150
28 12 73 33 100 46 28 13 93 42 145 63 l95 40 7 -64 c3 -36 12 -81 18 -100 18
-55 3 -111 -56 -210 -38 -63 -52 -96 -48 -112 3 -12 1 -37 -5 -56 -14 -41 -52
-259 -47 -265 2 -2 23 9 45 24 23 15 44 24 47 21 8 -8 -36 -46 -78 -68 -46
-24 -50 -42 -6 -27 17 6 67 45 110 86 80 77 105 115 44 68 -19 -14 -38 -26
-43 -26 -4 0 -22 27 -40 61 l-31 61 18 51 c20 60 30 62 116 23 78 -36 94 -66
96 -178 2 -72 -2 -100 -15 -123 -9 -16 -17 -35 -17 -41 0 -5 -16 -66 -35 -134
-19 -68 -35 -125 -35 -127 0 -2 153 -3 340 -3 l340 0 0 1058 0 1059 -37 11
c-21 7 -52 20 -70 31 -41 26 -113 123 -113 154 0 32 68 164 124 237 49 66 73
127 55 145 -17 17 -168 15 -264 -5z m-84 -116 c17 -21 0 -49 -32 -49 -24 0
-36 23 -25 51 7 19 40 18 57 -2z"/>
<path d="M2605 2674 c-15 -14 -25 -27 -23 -29 3 -3 17 9 33 25 35 37 28 40
-10 4z"/>
<path d="M5871 2664 c0 -11 3 -14 6 -6 3 7 2 16 -1 19 -3 4 -6 -2 -5 -13z"/>
<path d="M6590 2674 c0 -6 -9 -20 -20 -32 -11 -12 -33 -41 -48 -66 -15 -24
-53 -83 -85 -131 -32 -48 -56 -89 -54 -92 3 -2 21 19 41 49 20 29 43 64 53 78
79 117 125 192 119 197 -3 3 -6 2 -6 -3z"/>
<path d="M812 2650 c0 -14 2 -19 5 -12 2 6 2 18 0 25 -3 6 -5 1 -5 -13z"/>
<path d="M1726 2657 c3 -10 9 -15 12 -12 3 3 0 11 -7 18 -10 9 -11 8 -5 -6z"/>
<path d="M4260 2666 c0 -3 24 -21 53 -40 28 -20 62 -43 75 -52 12 -9 22 -12
22 -6 0 6 -24 25 -52 43 -29 17 -63 38 -75 47 -13 8 -23 12 -23 8z"/>
<path d="M1746 2622 c-2 -4 -1 -14 5 -22 7 -12 9 -10 9 8 0 23 -5 28 -14 14z"/>
<path d="M2977 2595 c18 -24 43 -34 43 -16 0 11 -39 41 -53 41 -4 0 0 -11 10
-25z"/>
<path d="M822 2570 c0 -14 4 -36 8 -50 l8 -25 0 25 c0 14 -4 36 -8 50 l-8 25
0 -25z"/>
<path d="M4718 2563 c5 -21 7 -23 10 -9 2 10 0 22 -6 28 -6 6 -7 0 -4 -19z"/>
<path d="M5735 2580 c-3 -5 -1 -10 4 -10 6 0 11 5 11 10 0 6 -2 10 -4 10 -3 0
-8 -4 -11 -10z"/>
<path d="M7375 2537 c-39 -23 -90 -61 -115 -84 -25 -24 -48 -43 -52 -43 -18 0
-4 -27 27 -52 l33 -28 13 33 c7 17 29 50 48 73 60 68 122 144 119 144 -2 0
-35 -19 -73 -43z"/>
<path d="M1777 2549 c4 -13 9 -17 15 -11 11 11 3 32 -12 32 -4 0 -6 -9 -3 -21z"/>
<path d="M2805 2560 c-3 -5 -1 -10 4 -10 6 0 11 5 11 10 0 6 -2 10 -4 10 -3 0
-8 -4 -11 -10z"/>
<path d="M5680 2562 c0 -5 -8 -17 -18 -28 -10 -10 -21 -26 -24 -36 -6 -13 -1
-12 27 5 36 23 47 44 18 33 -15 -6 -15 -4 2 14 10 11 13 20 7 20 -7 0 -12 -4
-12 -8z"/>
<path d="M4430 2545 c7 -8 18 -15 24 -15 6 0 31 -16 55 -35 47 -38 51 -40 51
-26 0 9 -94 73 -124 84 -16 6 -17 5 -6 -8z"/>
<path d="M4898 2523 c-19 -23 -31 -43 -24 -43 2 0 14 14 26 30 23 33 22 40 -2
13z"/>
<path d="M3100 2524 c0 -17 48 -69 56 -61 5 4 4 15 -2 24 -13 20 -54 48 -54
37z"/>
<path d="M4632 2413 c37 -27 104 -73 148 -103 45 -30 86 -60 93 -65 7 -6 35
-26 62 -45 28 -19 52 -37 55 -40 10 -11 60 -40 60 -36 0 3 -44 36 -97 75 -54
38 -107 77 -118 86 -22 17 -122 86 -202 140 -77 52 -78 42 -1 -12z"/>
<path d="M842 2425 c0 -16 2 -22 5 -12 2 9 2 23 0 30 -3 6 -5 -1 -5 -18z"/>
<path d="M3230 2431 c0 -16 51 -44 62 -33 6 6 -2 15 -23 26 -37 19 -39 19 -39
7z"/>
<path d="M3360 2335 c37 -27 50 -31 50 -14 0 5 -16 17 -35 25 -49 20 -54 17
-15 -11z"/>
<path d="M6751 2210 c-55 -82 -98 -150 -96 -150 8 0 120 155 149 205 16 28 38
60 49 73 11 12 16 22 10 22 -6 0 -57 -67 -112 -150z"/>
<path d="M2341 2323 c-10 -26 -10 -27 4 -9 8 11 15 23 15 28 0 15 -7 8 -19
-19z"/>
<path d="M3717 2339 c7 -7 15 -10 18 -7 3 3 -2 9 -12 12 -14 6 -15 5 -6 -5z"/>
<path d="M5509 2298 c-18 -29 -37 -62 -42 -73 -8 -19 -7 -19 13 1 18 18 75
124 66 124 -2 0 -18 -24 -37 -52z"/>
<path d="M3780 2307 c46 -29 348 -174 380 -181 14 -3 -69 41 -185 99 -207 103
-263 127 -195 82z"/>
<path d="M856 2297 c3 -10 9 -15 12 -12 3 3 0 11 -7 18 -10 9 -11 8 -5 -6z"/>
<path d="M5341 2234 c0 -11 3 -14 6 -6 3 7 2 16 -1 19 -3 4 -6 -2 -5 -13z"/>
<path d="M6120 2230 c0 -8 -17 -32 -37 -54 l-38 -39 35 21 c45 27 62 52 50 72
-8 13 -10 13 -10 0z"/>
<path d="M3550 2220 c8 -5 22 -10 30 -10 13 0 13 1 0 10 -8 5 -22 10 -30 10
-13 0 -13 -1 0 -10z"/>
<path d="M6268 2213 c-9 -10 -21 -29 -28 -43 -9 -19 -5 -17 19 10 27 31 38 50
28 50 -2 0 -11 -8 -19 -17z"/>
<path d="M5960 2110 c-25 -32 -70 -93 -100 -135 -114 -160 -152 -188 -310
-240 -75 -24 -78 -30 -17 -29 54 1 178 41 234 76 28 16 38 18 68 9 19 -6 51
-16 70 -22 19 -5 40 -7 46 -4 9 6 69 -12 69 -21 0 -11 -97 -91 -120 -99 -16
-5 -43 -26 -62 -46 -19 -20 -44 -41 -56 -48 -38 -20 -24 -31 41 -30 34 1 52 4
40 6 -31 6 -29 20 7 38 17 9 55 39 85 67 90 84 83 82 148 37 54 -37 60 -38
100 -30 23 5 74 13 112 16 70 7 70 8 130 69 83 86 145 165 145 185 0 10 11 31
25 47 40 47 29 75 -28 73 -16 -1 -13 -3 11 -10 17 -5 32 -15 32 -21 0 -19
-162 -205 -231 -266 -26 -22 -150 -61 -196 -62 -12 0 -37 13 -55 28 -18 16
-82 57 -141 92 l-109 65 6 38 c4 21 31 87 61 147 30 61 55 114 55 120 0 21
-16 7 -60 -50z"/>
<path d="M6375 2114 c-64 -71 -66 -74 -30 -44 35 29 95 89 95 96 0 13 -21 -3
-65 -52z"/>
<path d="M3768 2120 c43 -31 62 -37 62 -20 0 9 -79 50 -96 50 -4 0 12 -13 34
-30z"/>
<path d="M5825 2106 c-24 -41 -121 -181 -143 -207 -16 -18 -17 -18 -28 9 -12
27 -12 26 -13 -15 -1 -28 3 -43 12 -43 11 1 87 97 116 150 8 14 17 27 20 30
17 14 63 90 60 99 -2 6 -13 -5 -24 -23z"/>
<path d="M4555 2072 c15 -14 175 -81 175 -73 0 3 -42 23 -92 44 -51 21 -88 34
-83 29z"/>
<path d="M6001 2042 c-1 -25 36 -142 49 -156 5 -5 -2 24 -15 65 -12 41 -25 83
-28 94 -4 18 -5 18 -6 -3z"/>
<path d="M6442 2019 c-3 -55 -38 -124 -75 -148 -18 -12 -25 -21 -16 -21 43 0
102 99 96 163 -3 41 -4 41 -5 6z"/>
<path d="M6478 2038 c5 -5 16 -8 23 -6 8 3 3 7 -10 11 -17 4 -21 3 -13 -5z"/>
<path d="M3944 2015 c21 -14 42 -22 48 -19 6 4 -4 15 -23 25 -51 27 -67 23
-25 -6z"/>
<path d="M2020 2012 c0 -5 10 -17 21 -28 22 -19 22 -19 10 3 -12 24 -31 39
-31 25z"/>
<path d="M4420 2006 c0 -3 9 -10 20 -16 11 -6 20 -8 20 -6 0 3 -9 10 -20 16
-11 6 -20 8 -20 6z"/>
<path d="M2595 1990 c-3 -5 -1 -10 4 -10 6 0 11 5 11 10 0 6 -2 10 -4 10 -3 0
-8 -4 -11 -10z"/>
<path d="M4746 1981 c5 -5 20 -12 34 -15 l25 -7 -25 15 c-28 17 -50 21 -34 7z"/>
<path d="M7064 1968 c-16 -13 -33 -27 -39 -33 -27 -28 -99 -131 -123 -177 -15
-29 -37 -67 -49 -84 -13 -17 -27 -42 -33 -55 -6 -13 -22 -45 -38 -70 -15 -25
-40 -68 -56 -95 -16 -27 -43 -71 -61 -99 -18 -27 -48 -77 -66 -110 -18 -33
-35 -62 -38 -65 -4 -3 -22 -36 -41 -74 -19 -38 -44 -83 -55 -100 -12 -17 -31
-57 -44 -89 -13 -31 -37 -78 -54 -103 -58 -87 -1 -77 104 18 20 18 71 62 114
98 239 200 258 221 296 347 12 37 38 105 60 151 21 45 39 85 39 89 0 7 45 124
60 158 42 90 96 288 84 307 -9 14 -30 9 -60 -14z"/>
<path d="M2668 1937 c-20 -48 -23 -72 -5 -42 17 29 36 85 28 85 -3 0 -14 -19
-23 -43z"/>
<path d="M4550 1944 c114 -57 136 -67 205 -91 38 -14 84 -31 100 -39 30 -14
273 -101 310 -111 14 -4 17 -2 10 5 -5 5 -53 24 -105 42 -52 18 -120 42 -150
55 -30 13 -86 35 -125 50 -38 14 -83 32 -100 40 -29 14 -138 56 -180 69 -11 4
5 -5 35 -20z"/>
<path d="M0 1798 l0 -144 31 -18 c55 -33 279 -274 279 -301 0 -3 33 -75 74
-158 41 -84 92 -197 114 -252 22 -55 78 -188 123 -295 45 -107 109 -274 140
-370 93 -280 83 -260 136 -260 36 0 44 3 39 15 -13 35 -55 226 -66 305 -16
105 -46 184 -153 392 -46 90 -98 201 -116 248 -17 47 -38 99 -46 115 -7 17
-23 62 -36 100 -21 67 -31 92 -77 197 -26 57 -39 113 -47 200 -4 42 -16 86
-33 120 -25 49 -34 56 -130 108 -56 30 -126 72 -154 94 -82 61 -78 66 -78 -96z"/>
<path d="M4147 1913 c-10 -9 25 -32 51 -33 30 0 28 18 -4 30 -30 12 -38 12
-47 3z"/>
<path d="M2392 1858 c-7 -7 -12 -18 -12 -25 0 -11 6 -9 25 4 13 10 25 21 25
26 0 11 -25 8 -38 -5z"/>
<path d="M2600 1855 c6 -8 18 -11 26 -8 22 8 17 18 -11 19 -20 2 -23 -1 -15
-11z"/>
<path d="M6283 1843 c9 -2 23 -2 30 0 6 3 -1 5 -18 5 -16 0 -22 -2 -12 -5z"/>
<path d="M6130 1830 c-31 -7 -29 -7 20 -8 30 0 69 4 85 8 25 6 22 8 -20 8 -27
-1 -66 -4 -85 -8z"/>
<path d="M4360 1810 c22 -17 70 -28 70 -16 0 15 -36 36 -63 36 l-32 0 25 -20z"/>
<path d="M2623 1775 c0 -22 2 -30 4 -17 2 12 2 30 0 40 -3 9 -5 -1 -4 -23z"/>
<path d="M4520 1755 c0 -3 12 -10 26 -15 29 -11 54 -3 33 11 -15 9 -59 12 -59
4z"/>
<path d="M2510 1739 c0 -5 5 -7 10 -4 6 3 10 8 10 11 0 2 -4 4 -10 4 -5 0 -10
-5 -10 -11z"/>
<path d="M3355 1610 c3 -5 8 -10 11 -10 2 0 4 5 4 10 0 6 -5 10 -11 10 -5 0
-7 -4 -4 -10z"/>
<path d="M4890 1586 c0 -15 27 -25 48 -19 25 9 12 33 -18 33 -19 0 -30 -5 -30
-14z"/>
<path d="M3580 1576 c0 -9 30 -14 35 -6 4 6 -3 10 -14 10 -12 0 -21 -2 -21 -4z"/>
<path d="M5055 1549 c-4 -6 -5 -11 -4 -12 2 -1 15 -8 28 -15 27 -16 47 -3 38
22 -7 18 -52 22 -62 5z"/>
<path d="M5653 1553 c-15 -5 -18 -33 -4 -33 8 0 25 30 19 35 -2 1 -9 0 -15 -2z"/>
<path d="M4535 1480 c-17 -33 -19 -50 -6 -50 9 0 22 31 26 63 3 25 -2 21 -20
-13z"/>
<path d="M4571 1484 c0 -11 3 -14 6 -6 3 7 2 16 -1 19 -3 4 -6 -2 -5 -13z"/>
<path d="M3980 1480 c0 -5 10 -10 23 -10 18 0 19 2 7 10 -19 13 -30 13 -30 0z"/>
<path d="M5725 1480 c-4 -6 3 -10 14 -10 25 0 27 6 6 13 -8 4 -17 2 -20 -3z"/>
<path d="M5282 1468 c3 -7 17 -14 32 -16 20 -3 27 0 24 10 -3 7 -17 14 -32 16
-20 3 -27 0 -24 -10z"/>
<path d="M6093 1445 c-22 -15 -68 -83 -62 -89 6 -5 92 94 87 99 -2 3 -14 -2
-25 -10z"/>
<path d="M5437 1443 c-13 -13 -7 -32 13 -38 25 -8 51 11 43 31 -5 14 -44 19
-56 7z"/>
<path d="M4188 1423 c17 -9 32 -20 32 -25 0 -4 5 -8 10 -8 6 0 10 4 10 8 0 8
-65 43 -78 41 -4 0 8 -8 26 -16z"/>
<path d="M5730 1429 c0 -21 43 -154 57 -174 21 -31 16 2 -13 80 -14 39 -26 78
-25 88 0 9 -4 17 -10 17 -5 0 -9 -5 -9 -11z"/>
<path d="M5770 1431 c0 -15 139 -82 163 -79 15 2 -4 15 -65 46 -92 45 -98 47
-98 33z"/>
<path d="M5985 1330 c4 -6 11 -8 16 -5 14 9 11 15 -7 15 -8 0 -12 -5 -9 -10z"/>
<path d="M5802 1205 c0 -16 2 -22 5 -12 2 9 2 23 0 30 -3 6 -5 -1 -5 -18z"/>
<path d="M1042 915 c-1 -44 3 -143 8 -220 6 -77 14 -231 19 -343 5 -126 13
-208 20 -215 8 -8 11 -2 11 23 0 19 12 82 26 140 24 101 55 279 53 310 -1 14
-23 -59 -52 -168 -6 -23 -16 -41 -22 -39 -15 5 -23 57 -35 237 -7 91 -15 208
-20 260 l-7 95 -1 -80z"/>
<path d="M7338 687 c-26 -28 -81 -88 -123 -131 -41 -44 -74 -80 -72 -82 3 -3
236 223 256 249 11 14 11 17 0 17 -8 0 -35 -24 -61 -53z"/>
<path d="M6705 687 c-11 -7 -41 -26 -66 -44 -26 -17 -60 -38 -77 -47 -56 -29
-447 -359 -460 -388 -2 -5 -8 -8 -13 -8 -5 0 -53 -44 -106 -98 l-96 -97 39 -3
c21 -2 87 -2 145 0 l107 3 50 47 c28 27 55 48 61 48 5 0 36 27 70 60 34 33 65
60 69 60 4 0 25 16 45 35 37 35 52 42 60 28 2 -5 2 -2 1 5 -2 6 1 12 7 12 5 0
28 17 52 38 44 39 66 54 107 74 35 18 93 78 75 78 -21 0 -86 -36 -78 -43 5 -6
-39 -29 -59 -31 -3 -1 -21 -12 -40 -26 -68 -51 -98 -69 -102 -62 -2 4 -23 6
-45 4 -39 -4 -48 -13 -42 -45 1 -5 -3 -6 -9 -2 -5 3 -7 18 -4 32 6 24 6 24
-17 11 -13 -7 -33 -21 -44 -30 -11 -9 -38 -18 -60 -20 -31 -2 -39 -7 -37 -20
2 -12 -2 -16 -13 -12 -8 3 -15 2 -15 -4 0 -5 -7 -13 -16 -16 -33 -13 3 25 136
144 40 36 80 72 89 81 9 9 39 34 66 55 28 20 87 66 132 101 46 34 85 63 89 63
3 0 12 7 20 15 18 18 7 19 -21 2z m-264 -418 c-12 -12 -25 -19 -28 -16 -8 8
20 36 36 37 10 0 8 -7 -8 -21z m-71 -49 c0 -5 -4 -10 -10 -10 -5 0 -10 5 -10
10 0 6 5 10 10 10 6 0 10 -4 10 -10z m-210 -18 c0 -4 -10 -13 -22 -21 -23 -14
-23 -14 -4 8 20 22 26 25 26 13z"/>
<path d="M0 451 c1 -7 71 -53 75 -49 2 2 -7 14 -19 28 -20 23 -57 37 -56 21z"/>
<path d="M6600 430 c0 -5 5 -10 10 -10 6 0 10 5 10 10 0 6 -4 10 -10 10 -5 0
-10 -4 -10 -10z"/>
<path d="M6560 410 c0 -5 5 -10 11 -10 5 0 7 5 4 10 -3 6 -8 10 -11 10 -2 0
-4 -4 -4 -10z"/>
<path d="M80 386 c0 -2 7 -7 16 -10 8 -3 12 -2 9 4 -6 10 -25 14 -25 6z"/>
<path d="M120 357 c0 -7 5 -18 11 -24 7 -7 18 -42 25 -80 7 -37 20 -99 29
-138 10 -38 19 -80 21 -92 4 -23 7 -23 141 -23 l137 0 -44 45 c-211 215 -300
309 -300 316 0 5 -4 9 -10 9 -5 0 -10 -6 -10 -13z"/>
<path d="M6495 360 c-3 -5 1 -10 10 -10 9 0 13 5 10 10 -3 6 -8 10 -10 10 -2
0 -7 -4 -10 -10z"/>
<path d="M6290 310 c-9 -6 -10 -10 -3 -10 6 0 15 5 18 10 8 12 4 12 -15 0z"/>
<path d="M7290 236 c-80 -32 -177 -75 -210 -94 -19 -11 -71 -28 -115 -37 -44
-9 -89 -22 -100 -29 -11 -7 -51 -21 -90 -31 -147 -39 -145 -44 18 -45 l148 0
77 52 c42 28 79 54 82 58 9 11 154 87 203 105 26 10 50 22 53 26 8 13 -26 10
-66 -5z"/>
<path d="M0 128 c0 -13 9 -41 20 -63 11 -22 20 -45 20 -52 0 -7 7 -13 15 -13
17 0 19 12 6 38 -5 9 -17 36 -27 60 -21 51 -34 62 -34 30z"/>
<path d="M1090 26 c0 -14 5 -26 10 -26 6 0 10 9 10 19 0 11 -4 23 -10 26 -6 4
-10 -5 -10 -19z"/>
</g>
</svg>
